<svg width="93" height="93" viewBox="0 0 93 93" fill="none" xmlns="http://www.w3.org/2000/svg">
<path d="M92.5748 46.3001C92.5748 69.8063 75.0723 89.2167 52.3802 92.1931C50.3959 92.4475 48.3607 92.6002 46.3001 92.6002C44.2395 92.6002 42.2043 92.473 40.1946 92.1931C17.5025 89.1913 0 69.8063 0 46.3001C0 20.7332 20.7333 0 46.3001 0C71.8669 0 92.6002 20.7332 92.6002 46.3001H92.5748Z" fill="#6D18CE"/>
<path d="M37.6252 57.8203C40.1402 57.8203 42.1789 55.7815 42.1789 53.2666C42.1789 50.7517 40.1402 48.7129 37.6252 48.7129C35.1103 48.7129 33.0715 50.7517 33.0715 53.2666C33.0715 55.7815 35.1103 57.8203 37.6252 57.8203Z" fill="white"/>
<path d="M55.7385 57.8203C58.2534 57.8203 60.2922 55.7815 60.2922 53.2666C60.2922 50.7517 58.2534 48.7129 55.7385 48.7129C53.2236 48.7129 51.1848 50.7517 51.1848 53.2666C51.1848 55.7815 53.2236 57.8203 55.7385 57.8203Z" fill="white"/>
<path d="M82.6024 42.8641C82.7296 42.6351 82.9585 42.5079 83.162 42.3298C83.6708 41.8973 83.9761 41.185 83.9252 40.5236C83.8743 39.8367 83.5182 39.1753 82.9585 38.8192C82.6024 38.5902 82.119 38.463 81.9664 38.0814C81.89 37.9033 81.89 37.6998 81.89 37.4963C81.89 35.9699 81.89 34.4435 81.89 32.9172L88.7079 30.1443L46.3255 14.0664L3.84131 30.5004L21.3438 36.4278V49.0459C25.0834 46.7817 34.3943 41.8465 47.165 42.05C58.9944 42.2535 67.593 46.7563 71.358 49.0459V37.191L81.2286 33.1716C81.2286 34.698 81.2286 36.2498 81.2286 37.7761C81.2286 37.9288 81.2286 38.1068 81.1523 38.234C81.0505 38.4121 80.8216 38.4884 80.6181 38.5902C79.8549 38.9463 79.3206 39.735 79.2698 40.5491C79.2189 41.3886 79.6768 42.2281 80.3891 42.6351C80.5163 42.7114 80.6689 42.7877 80.7198 42.9149C80.7707 43.0421 80.7707 43.1693 80.7707 43.2965C80.4654 46.451 80.0075 49.6056 79.397 52.7346C79.3461 52.9382 79.3206 53.1671 79.4478 53.3452C79.5242 53.4469 79.6259 53.4978 79.7531 53.5487C80.1602 53.7522 80.5926 53.9558 81.076 54.0066C81.5339 54.0575 82.0427 53.9557 82.3734 53.625C82.8568 53.1416 82.8313 52.3276 83.162 51.7425C83.3401 52.1749 83.5182 52.6329 83.8743 52.9381C84.2305 53.2434 84.7902 53.3706 85.1718 53.0653C84.0524 50.0634 82.9076 47.0107 82.526 43.8308C82.4752 43.5001 82.4497 43.1439 82.6278 42.8641H82.6024Z" fill="white"/>
<path d="M74.7672 74.1024C73.1136 75.6796 71.46 77.206 69.9336 78.8596C68.4327 80.5131 67.237 80.2842 65.7615 78.7578C62.5562 75.4506 59.249 72.2453 55.891 69.0908C55.3059 68.5311 54.0084 67.8442 53.6014 68.0986C52.94 68.5565 52.4312 69.6504 52.4057 70.4899C52.2785 73.8225 52.3294 77.1551 52.3294 80.4876C52.3294 80.4876 52.3294 80.4877 52.3294 80.5131V81.429C52.3294 85.016 52.3294 88.6029 52.3294 92.1899C50.3451 92.4443 48.31 92.5969 46.2494 92.5969C44.1887 92.5969 42.1536 92.4697 40.1438 92.1899C40.1693 88.6029 40.1438 85.016 40.1438 81.429V80.9456C40.1438 77.4604 40.2202 73.9497 40.093 70.4644C40.093 69.6249 39.5587 68.5311 38.8973 68.0732C38.5157 67.8442 37.2183 68.5056 36.6077 69.0653C33.2497 72.2198 29.9426 75.4506 26.7372 78.7323C25.2617 80.2332 24.0915 80.4877 22.5651 78.8341C21.0387 77.1551 19.3851 75.6287 17.7315 74.0769C16.6376 73.0339 16.4087 72.0672 17.6043 70.9224C21.0896 67.5389 24.473 64.0282 28.06 60.7719C30.7312 58.3297 34.0638 58.4825 36.7095 61.001C39.9149 64.0792 43.1203 67.1319 46.2494 70.2864C49.3784 67.1319 52.5838 64.0792 55.7892 61.001C58.4349 58.4825 61.793 58.3297 64.4641 60.7719C68.0511 64.0537 71.4346 67.5389 74.9198 70.9224C76.09 72.0672 75.8865 73.0339 74.7926 74.0769L74.7672 74.1024Z" fill="white"/>
</svg>
