<svg width="766" height="765" viewBox="0 0 766 765" fill="none" xmlns="http://www.w3.org/2000/svg">
<path d="M383 764.443C594.049 764.443 765.139 593.353 765.139 382.303C765.139 171.254 594.049 0.164062 383 0.164062C171.95 0.164062 0.860352 171.254 0.860352 382.303C0.860352 593.353 171.95 764.443 383 764.443Z" fill="#CCC7BC"/>
<mask id="mask0_1098_3442" style="mask-type:luminance" maskUnits="userSpaceOnUse" x="0" y="0" width="766" height="765">
<path d="M383 764.443C594.049 764.443 765.139 593.353 765.139 382.303C765.139 171.254 594.049 0.164062 383 0.164062C171.95 0.164062 0.860352 171.254 0.860352 382.303C0.860352 593.353 171.95 764.443 383 764.443Z" fill="white"/>
</mask>
<g mask="url(#mask0_1098_3442)">
<path d="M197.818 1246.57C198.624 1235.85 204.486 1226.31 206.525 1215.74C209.005 1202.86 209.148 1189.22 209.683 1176.13C210.557 1155 209.737 1133.72 209.69 1112.57C209.588 1068.94 211.363 1025.14 215.138 981.676C216.025 971.457 217.035 961.246 218.16 951.048C218.77 945.546 219.413 940.051 220.091 934.556C220.287 932.963 222.212 918.395 221.277 925.191C224.231 903.792 227.707 882.462 231.603 861.219C239.843 816.26 250.047 771.708 261.438 727.447C267.272 704.775 254.005 677.752 230.133 672.311C206.817 666.998 181.197 679.31 174.997 703.616C151.904 794.157 134.354 886.148 126.291 979.318C122.449 1023.69 121.148 1068.06 122.706 1112.57C123.573 1137.35 125.247 1162.55 129.692 1186.96C131.739 1198.17 133.792 1209.5 137.979 1220.1C142.458 1231.44 150.474 1240.96 154.167 1252.48C161.993 1276.92 195.948 1271.46 197.818 1246.57Z" fill="#A149CA"/>
<path d="M642.602 323.258C662.361 313.047 671.671 286.017 666.331 265.093C666.304 264.815 666.243 264.524 666.135 264.212C666.054 263.921 665.945 263.663 665.816 263.426C658.038 242.929 642.216 233.768 621.854 232.06C625.323 226.226 625.655 218.827 622.463 212.328C618.242 203.736 609.752 199.732 600.841 198.255C613.458 182.25 611.168 155.078 598.944 139.378C581.95 117.546 551.966 117.505 529.104 128.455C528.433 101.568 498.903 85.8949 477.037 100.694C476.712 81.6599 456.648 69.1649 437.784 66.2512C411.344 62.1653 385.439 78.5903 369.163 98.7015C355.184 81.4973 332.491 94.2361 321.189 109.74C289.349 77.3571 234.836 97.0076 230.004 141.912C215.253 140.293 201.457 151.832 201.125 166.807C183.887 165.852 166.805 173.515 157.671 188.734C148.679 203.716 150.21 219.423 155.922 234.919C128.663 247.814 121.162 285.76 147.215 301.86C112.509 319.843 108.294 367.926 140.588 391.215C114.873 411.245 125.369 451.718 157.149 457.233C150.942 467.377 151.43 480.333 157.84 490.869C166.222 504.645 182.132 510.079 197.425 512.01C193.096 525.847 205.807 540.063 220.437 540.422C232.41 540.714 238.969 533.206 248.903 528.456C251.112 527.399 250.671 527.155 253.93 526.586C262.963 524.993 273.167 525.861 282.322 525.522C297.798 524.939 313.281 524.363 328.758 523.78C363.695 522.473 398.625 521.158 433.562 519.85C447.406 519.329 461.249 518.814 475.092 518.292C480.276 518.095 490.311 515.67 495.251 517.533C496.654 518.061 500.299 523.245 502.305 524.81C506.953 528.442 511.994 531.458 517.422 533.775C529.158 538.789 542.541 540.388 554.9 536.695C576.387 530.272 590.569 507.525 586.042 485.814C612.367 481.918 627.173 456.088 617.592 431.335C642.839 425.366 655.646 398.187 642.554 375.284C651.499 372.113 657.638 364.3 658.613 354.116C659.82 341.309 652.054 330.922 642.602 323.258Z" fill="#964A35"/>
<path d="M548.381 671.876L432.24 641.764H330.892L214.751 671.876C207.86 674.106 203.361 680.733 203.835 687.963L221.527 1170.77C221.527 1170.77 302.595 1184.57 381.563 1184.57C460.53 1184.57 553.931 1170.77 553.931 1170.77L559.297 687.963C559.772 680.733 555.272 674.106 548.381 671.876Z" fill="#A149CA"/>
<path d="M431.184 654.577L426.617 656.569C396.199 669.843 361.628 669.843 331.211 656.569L326.644 654.577V584.879H431.19V654.577H431.184Z" fill="#FFD9AB"/>
<path d="M271.467 428.048C271.467 459.794 245.731 485.522 213.993 485.522C182.254 485.522 156.519 459.794 156.519 428.048C156.519 396.309 182.254 370.574 213.993 370.574C245.731 370.581 271.467 396.309 271.467 428.048Z" fill="#FFD097"/>
<path d="M601.296 428.048C601.296 459.794 575.56 485.522 543.822 485.522C512.076 485.522 486.348 459.794 486.348 428.048C486.348 396.309 512.083 370.574 543.822 370.574C575.567 370.581 601.296 396.309 601.296 428.048Z" fill="#FFD097"/>
<path d="M542.987 485.72C542.987 584.283 469.529 600.993 378.913 600.993C288.298 600.993 214.839 584.283 214.839 485.72C214.839 387.156 173.723 229.898 378.913 229.898C584.104 229.898 542.987 387.149 542.987 485.72Z" fill="#FFD9AB"/>
<path d="M301.85 419.498C307.372 419.498 313.166 417.099 317.069 413.196C320.802 409.463 323.614 403.344 323.37 397.978C323.12 392.414 321.29 386.641 317.069 382.759C312.854 378.896 307.684 376.457 301.85 376.457C296.334 376.457 290.534 378.856 286.638 382.759C282.904 386.492 280.092 392.611 280.336 397.978C280.587 403.547 282.416 409.314 286.638 413.196C290.846 417.059 296.016 419.498 301.85 419.498Z" fill="#322A2D"/>
<path d="M455.977 419.498C461.492 419.498 467.286 417.099 471.196 413.196C474.929 409.463 477.741 403.344 477.497 397.978C477.247 392.414 475.417 386.641 471.196 382.759C466.981 378.896 461.811 376.457 455.977 376.457C450.454 376.457 444.661 378.856 440.758 382.759C437.024 386.492 434.212 392.611 434.456 397.978C434.707 403.547 436.536 409.314 440.758 413.196C444.966 417.059 450.143 419.498 455.977 419.498Z" fill="#322A2D"/>
<path d="M371.711 401.684C370.078 408.168 370.342 413.854 369.8 420.426C369.122 428.652 365.755 431.505 359.853 436.512C354.412 441.127 344.004 447.232 344.674 455.628C345.881 470.765 377.918 480.875 387.777 470.006C390.826 466.645 387.892 460.832 383.216 462.167C376.014 464.22 369.034 464.911 361.723 462.356C355.123 460.052 351.41 455.526 355.807 449.455C358.03 446.385 361.913 443.851 364.738 441.378C368.553 438.03 373.33 434.541 375.085 429.581C377.958 421.47 374.719 410.56 375.004 402.118C375.051 400.247 372.165 399.854 371.711 401.684Z" fill="#F19687"/>
<path d="M555.598 345.755C554.71 302.87 537.045 258.453 499.12 235.496C463.946 214.213 420.18 211.685 380.12 211.36C334.416 210.987 286.577 214.294 248.998 243.194C221.508 264.341 200.631 296.677 195.569 331.322C194.878 331.878 194.397 332.718 194.363 333.863C194.315 335.564 194.261 337.258 194.214 338.959C194.139 339.535 194.295 340.077 194.58 340.565C194.431 342.99 194.343 345.423 194.356 347.862C194.444 365.419 194.607 383.159 197.209 400.559C198.517 409.3 200.475 425.522 210.571 429.195C233.901 437.672 227.924 376.362 228.683 366.815C230.52 343.587 241.869 320.935 257.651 303.927C277.281 282.759 303.985 274.736 332.092 272.866C359.819 271.016 388.414 270.345 416.162 271.91C446.444 273.618 475.275 279.188 497.799 300.762C516.778 318.943 521.271 338.281 523.372 363.61C524.374 375.705 522.558 395.084 529.795 405.777C535.46 414.138 544.763 409.592 548.897 402.24C557.76 386.452 555.673 363.088 555.598 345.755Z" fill="#964A35"/>
<path d="M328.094 501.908C353.375 520.095 391.266 516.368 418.302 504.706C422.971 502.694 418.939 495.857 414.305 497.862C400.414 503.879 385.595 506.841 370.444 506.529C356.119 506.231 343.36 501.616 329.652 498.215C327.328 497.639 326.278 500.6 328.094 501.908Z" fill="#F19687"/>
<path d="M603.734 1271.94C623.88 1267.21 634.735 1237.27 640.732 1219.94C647.237 1201.14 649.554 1180.64 652.698 1161.07C659.386 1119.4 666.053 1077.71 672.077 1035.93C674.611 1018.35 677.884 1000.62 679.077 982.882C680.161 966.782 676.333 949.992 672.518 934.407C662.855 894.882 647.677 856.544 632.756 818.774C617.585 780.375 601.133 742.517 585.663 704.246C576.908 682.59 555.408 664.891 530.527 672.941C509.602 679.71 489.817 704.802 499.222 728.077C528.318 800.079 561.412 871.051 582.837 945.872C585.073 953.678 587.167 961.531 588.807 969.486C589.485 972.786 589.729 976.316 590.596 979.548C586.761 965.305 589.932 973.098 589.952 978.681C589.972 983.797 589.22 988.899 588.617 993.968C588.204 997.464 587.77 1000.96 587.33 1004.46C586.883 1007.98 584.362 1025.17 586.673 1009.67C580.466 1051.26 574.693 1092.91 568.35 1134.49C564.556 1159.36 559.04 1184.99 559.596 1210.22C559.833 1220.88 561.256 1231.17 563.763 1241.52C564.339 1243.91 565.166 1250.47 563.675 1239.37C564.556 1245.95 564.759 1251.17 568.228 1257.11C575.445 1269.43 589.925 1275.18 603.734 1271.94Z" fill="#A149CA"/>
<path d="M261.561 351.832C279.171 342.325 297.873 337.5 317.673 335.603C327.769 334.634 328.209 319.564 317.673 319.537C295.854 319.49 269.068 328.041 255.882 346.153C253.287 349.711 258.2 353.641 261.561 351.832Z" fill="#964A35"/>
<path d="M501.939 346.148C488.746 328.035 461.967 319.491 440.148 319.531C429.632 319.552 430.032 334.622 440.148 335.597C459.961 337.495 478.656 342.326 496.26 351.826C499.621 353.642 504.534 349.719 501.939 346.148Z" fill="#964A35"/>
<path d="M252.941 448.451C252.941 455.593 261.235 461.386 271.467 461.386C281.699 461.386 289.993 455.6 289.993 448.451C289.993 441.302 281.699 435.516 271.467 435.516C261.235 435.522 252.941 441.309 252.941 448.451Z" fill="#FFD097"/>
<path d="M467.829 448.451C467.829 455.593 476.123 461.386 486.355 461.386C496.586 461.386 504.88 455.6 504.88 448.451C504.88 441.302 496.586 435.516 486.355 435.516C476.123 435.522 467.829 441.309 467.829 448.451Z" fill="#FFD097"/>
<path d="M194.065 315.934C186.116 329.358 185.662 345.295 192.94 359.098C195.068 363.129 201.315 359.518 199.065 355.513C192.479 343.777 191.998 330.347 198.144 318.32C199.526 315.623 195.63 313.292 194.065 315.934Z" fill="#7A3C2B"/>
<path d="M203.754 284.588C202.501 292.374 201.2 301.142 205.794 308.134C209.419 313.657 215.463 316.55 221.955 314.978C225.803 314.05 224.164 308.013 220.315 309.036C214.786 310.499 209.934 306.109 208.132 301.176C206.268 296.08 206.837 290.361 207.244 285.062C207.386 283.09 204.073 282.609 203.754 284.588Z" fill="#7A3C2B"/>
<path d="M230.486 201.86C195.867 215.71 203.016 266.293 240.846 268.441C244.871 268.672 245.908 261.869 241.815 261.286C212.536 257.119 205.029 219.817 232.431 206.468C234.958 205.241 233.156 200.796 230.486 201.86Z" fill="#7A3C2B"/>
<path d="M278.277 225.692C273.899 236.31 270.118 251.82 283.033 258.271C286.55 260.033 289.647 254.666 286.11 253.006C275.553 248.039 279.171 235.409 282.058 226.735C282.871 224.289 279.205 223.429 278.277 225.692Z" fill="#7A3C2B"/>
<path d="M319.814 187.651C325.269 175.379 335.487 164.646 349.405 162.769C365.031 160.662 379.294 170.955 381.638 186.628C382.357 191.466 389.804 189.439 389.024 184.595C386.219 167.221 370.16 154.57 352.495 155.58C334.891 156.589 321.725 170.29 315.837 185.97C314.976 188.26 318.811 189.914 319.814 187.651Z" fill="#7A3C2B"/>
<path d="M379.728 223.103C378.135 233.965 389.065 244.034 399.825 240.558C403.823 239.264 402.075 232.894 398.084 234.256C391.416 236.533 384.288 230.774 384.925 223.808C385.189 220.867 380.154 220.149 379.728 223.103Z" fill="#7A3C2B"/>
<path d="M450.584 161.237C484.735 159.136 504.548 197.197 482.18 223.556C478.684 227.675 484.552 233.665 488.17 229.539C515.18 198.701 491.85 151.296 450.584 155.193C446.776 155.558 446.661 161.474 450.584 161.237Z" fill="#7A3C2B"/>
<path d="M448.679 229.242C447.941 239.352 453.185 248.912 461.906 253.974C466.107 256.413 469.949 249.814 465.707 247.469C458.986 243.756 455.259 236.885 455.652 229.235C455.882 224.736 449.005 224.803 448.679 229.242Z" fill="#7A3C2B"/>
<path d="M545.617 278.462C557.536 274.755 561.88 303.248 562.245 309.442C562.855 319.687 561.778 332.69 552.285 338.883C547.846 341.777 551.804 348.708 556.466 346.032C571.285 337.521 571.949 316.888 569.021 301.839C566.928 291.065 559.189 267.281 544.045 272.756C540.515 274.03 541.931 279.607 545.617 278.462Z" fill="#7A3C2B"/>
<path d="M507.821 260.336C501.485 264.564 500.659 273.563 505.598 279.2C508.2 282.168 512.768 277.682 509.955 274.843C506.798 271.658 507.076 266.549 510.233 263.466C511.826 261.921 509.739 259.062 507.821 260.336Z" fill="#7A3C2B"/>
<path d="M538.814 233.7C546.193 227.541 557.793 229.858 562.706 237.901C565.227 242.028 571.745 238.253 569.211 234.1C561.947 222.215 544.756 220.067 534.674 229.567C531.895 232.182 535.968 236.078 538.814 233.7Z" fill="#7A3C2B"/>
<path d="M605.592 266.733C617.937 276.545 619.787 293.945 610.552 306.542C608.255 309.673 613.574 313.833 615.979 310.73C627.776 295.511 624.483 273.617 609.135 262.139C606.506 260.167 602.996 264.666 605.592 266.733Z" fill="#7A3C2B"/>
<path d="M618.039 332.305C621.644 333.931 623.71 339.067 621.034 342.475C618.418 345.809 623.1 350.559 625.743 347.185C630.974 340.517 628.284 330.272 620.051 327.521C617.287 326.606 615.315 331.078 618.039 332.305Z" fill="#7A3C2B"/>
<path d="M595.671 356.008C597.263 361.578 593.286 366.748 587.791 367.608C583.176 368.333 585.135 375.353 589.729 374.628C598.666 373.226 604.412 362.818 601.316 354.449C600.028 350.98 594.621 352.328 595.671 356.008Z" fill="#7A3C2B"/>
<path d="M266.643 180.936C262.53 167.046 270.498 152.152 284.294 147.727C288.394 146.413 286.659 139.948 282.506 141.243C265.593 146.514 255.984 165.487 261.778 182.278C262.828 185.314 267.571 184.08 266.643 180.936Z" fill="#7A3C2B"/>
<path d="M402.542 133.307C408.606 128.57 418.33 129.668 422.999 135.875C426.244 140.185 432.397 135.557 428.914 131.308C421.257 121.978 407.122 121.178 398.056 128.814C394.885 131.484 399.391 135.767 402.542 133.307Z" fill="#7A3C2B"/>
<path d="M544.14 169.579C553.098 171.544 560.565 178.808 561.751 188.111C562.483 193.844 570.607 192.848 569.638 187.041C567.632 175.034 557.929 165.188 545.949 163.033C541.701 162.275 539.824 168.63 544.14 169.579Z" fill="#7A3C2B"/>
<path d="M149.655 341.236C142.371 350.567 140.975 362.405 146.199 373.077C148.184 377.136 154.296 373.572 152.27 369.526C148.205 361.402 149.201 352.261 154.493 344.97C156.532 342.165 151.81 338.478 149.655 341.236Z" fill="#7A3C2B"/>
<path d="M220.294 717.5C215.118 806.571 213.356 895.662 215.26 984.868C215.361 989.584 222.673 989.604 222.605 984.868C221.399 895.763 221.934 806.577 224.468 717.5C224.543 714.803 220.45 714.837 220.294 717.5Z" fill="#8B3FAE"/>
<path d="M565.152 737.056C558.092 775.232 552.549 813.577 547.074 852.004C546.376 856.889 553.254 857.885 553.796 852.912C557.983 814.587 563.797 776.411 569.767 738.33C570.241 735.335 565.715 733.993 565.152 737.056Z" fill="#8B3FAE"/>
<path d="M548.944 742.301C549.276 766.498 549.669 790.689 550.136 814.879C550.218 819.168 556.994 819.161 556.797 814.879C555.706 790.682 554.534 766.492 553.301 742.301C553.158 739.516 548.903 739.476 548.944 742.301Z" fill="#8B3FAE"/>
</g>
</svg>
