<svg width="765" height="765" viewBox="0 0 765 765" fill="none" xmlns="http://www.w3.org/2000/svg">
<path d="M382.776 764.443C593.826 764.443 764.915 593.353 764.915 382.303C764.915 171.254 593.826 0.164062 382.776 0.164062C171.726 0.164062 0.636719 171.254 0.636719 382.303C0.636719 593.353 171.726 764.443 382.776 764.443Z" fill="#FF6A12"/>
<mask id="mask0_1098_3358" style="mask-type:luminance" maskUnits="userSpaceOnUse" x="0" y="0" width="765" height="765">
<path d="M382.776 764.443C593.826 764.443 764.915 593.353 764.915 382.303C764.915 171.254 593.826 0.164062 382.776 0.164062C171.726 0.164062 0.636719 171.254 0.636719 382.303C0.636719 593.353 171.726 764.443 382.776 764.443Z" fill="white"/>
</mask>
<g mask="url(#mask0_1098_3358)">
<path d="M659.514 364.334C659.494 364.158 659.44 363.995 659.399 363.826C659.392 363.643 659.399 363.467 659.372 363.27C653.192 321.083 640.487 277.445 624.015 238.117C608.281 200.538 585.554 171.062 553.578 145.93C524.042 122.708 490.379 104.434 452.724 99.3585C422.917 95.3403 388.508 97.5018 359.202 104.285C351.044 106.168 343.048 108.675 335.35 111.969C331.386 113.663 327.497 115.533 323.777 117.721C318.756 120.676 318.275 121.875 313.254 120.703C306.891 119.212 301.294 116.265 294.545 115.621C286.902 114.896 279.205 115.567 271.676 116.976C241.672 122.586 208.626 139.676 187.302 161.731C162.393 187.487 146.659 224.809 134.733 258.147C121.141 296.127 115.788 338.639 118.573 378.835C121.019 414.083 132.477 448.6 149.37 479.526C166.228 510.384 190.432 539.676 224.814 551.033C228.337 552.198 230.77 548.092 229.313 545.178C223.235 533.063 217.109 520.277 213.288 507.016C230.898 525.725 257.542 536.39 282.01 541.154C284.32 541.601 287.302 540.083 287.051 537.312C283.595 498.506 349.187 481.443 378.215 479.472C400.353 477.967 423.039 485.204 441.808 496.676C456.255 505.505 483.433 528.042 461.337 543.749C458.287 545.917 459.121 551.223 463.349 551.175C490.074 550.843 518.323 545.721 540.934 531.051C538.583 534.357 535.954 537.508 532.986 540.578C530.431 543.214 532.451 547.076 535.805 547.381C573.08 550.748 607.99 530.061 629.463 500.857C658.749 461 665.687 412.498 659.514 364.334Z" fill="#70163C"/>
<path d="M150.04 1078.33C162.989 1067.79 171.188 1052.97 179.306 1038.4C188.162 1022.52 195.406 1006.01 202.385 989.231C217.746 952.302 226.765 913.015 236.285 874.276C256.2 793.262 271.792 710.981 298.164 631.709C309.988 596.162 252.961 580.313 241.977 616.219C217.773 695.342 199.207 776.099 180.478 856.645C171.561 894.997 160.977 933.038 153.205 971.641C149.763 988.736 146.103 1005.81 142.431 1022.86C138.914 1039.2 134.103 1054.9 133.67 1071.55C133.446 1080.57 143.996 1083.25 150.04 1078.33Z" fill="#FFD9AB"/>
<path d="M267.117 595.681C266.69 594.38 265.707 593.716 264.643 593.54C264.203 593.418 263.722 593.377 263.193 593.458C232.979 598.073 214.982 638.417 204.649 663.102C202.053 669.309 196.639 678.274 199.045 684.928C200.908 690.064 211.018 696.935 215.165 700.648C219.84 704.835 224.672 708.854 229.632 712.702C241.53 721.931 254.127 730.049 267.327 737.299C269.095 738.268 271.487 737.435 272.009 735.395C283.874 689.061 282.152 641.073 267.117 595.681Z" fill="#F9B7B7"/>
<path d="M526 1042.86C534.572 1025.62 544.397 1010.76 550.286 992.111C555.395 975.943 558.39 959.41 560.965 942.673C565.423 913.726 567.259 884.413 568.615 855.181C570.471 815.176 566.223 775.272 558.274 736.073C554.5 717.473 549.872 699.069 544.926 680.747C539.519 660.697 535.026 639.515 527.498 620.169C514.034 585.571 465.247 598.594 471.792 635.524C478.331 672.419 492.554 708.278 500.502 745.01C508.18 780.49 511.866 816.328 511.053 852.654C510.463 878.918 508.688 905.08 506.716 931.269C505.51 947.267 503.43 963.157 502.041 979.128C501.302 987.598 500.157 996.014 499.52 1004.49C498.842 1013.54 499.777 1021.99 497.785 1030.96C494.16 1047.23 517.842 1059.28 526 1042.86Z" fill="#FFD9AB"/>
<path d="M547.676 670.026C540.317 643.844 527.233 601.731 497.473 593.451C497.174 593.369 496.89 593.335 496.619 593.329C495.569 593.227 494.505 593.661 493.868 594.914C481.176 619.87 455.983 643.207 455.76 672.906C455.597 694.447 466.974 713.467 472.076 733.795C472.462 735.333 474.421 736.655 475.999 736.018C501.511 725.779 526.115 712.349 547.31 694.698C555.136 688.193 550.176 678.91 547.676 670.026Z" fill="#F9B7B7"/>
<path d="M503.314 593.132L423.716 578.021H337.099L257.501 593.132C251.612 595.036 247.764 600.701 248.17 606.88L254.655 705.343C244.715 715.886 233.914 731.091 234.137 747.245C234.456 770.711 246.788 792.028 261.146 803.879L268.485 933.938C268.485 933.938 304.669 945.83 361.919 945.83C419.163 945.83 460.462 933.938 460.462 933.938L512.644 606.874C513.044 600.701 509.202 595.036 503.314 593.132Z" fill="#FFCCCC"/>
<path d="M387.688 635.869C385.622 650.715 384.043 665.643 382.301 680.53C381.427 687.956 380.526 695.369 379.632 702.789C379.272 705.764 379.401 709.484 378.473 712.336C377.172 716.341 379.882 714.017 376.508 715.677C374.306 716.761 358.89 716.978 357.359 715.298C355.312 713.048 358.396 698.818 358.619 696.033C360.184 676.844 362.109 657.627 365.138 638.607C365.504 636.317 361.994 635.334 361.634 637.638C357.555 663.814 354.696 690.599 354.052 717.093C354.032 718.021 354.818 718.652 355.678 718.72C363.545 719.343 371.5 719.024 379.381 718.699C379.991 718.672 380.783 718.238 380.878 717.561C384.51 690.599 387.241 663.156 388.447 635.984C388.461 635.544 387.749 635.436 387.688 635.869Z" fill="#F9B7B7"/>
<path d="M380.336 636.092C414.379 635.977 445.02 614.151 455.218 584.005L423.709 578.021H337.092L319.616 581.342C317.983 600.098 356.857 636.166 380.336 636.092Z" fill="#FFD9AB"/>
<path d="M380.336 636.093C343.773 609.382 339.897 589.074 341.544 585.937C346.375 576.756 384.815 568.292 384.815 568.292C384.815 568.292 352.392 561.882 340.019 566.375C322.219 572.825 289.707 582.061 283.785 594.922C282.098 598.581 325.722 657.797 325.722 657.797C325.722 657.797 382.396 637.597 380.336 636.093Z" fill="white"/>
<path d="M380.336 636.093C416.9 609.382 420.776 589.074 419.129 585.937C414.298 576.756 375.857 568.292 375.857 568.292C375.857 568.292 408.281 561.882 420.654 566.375C438.454 572.825 470.965 582.061 476.888 594.922C478.575 598.581 434.951 657.797 434.951 657.797C434.951 657.797 378.276 637.597 380.336 636.093Z" fill="white"/>
<path d="M380.12 619.253C400.393 619.253 416.832 602.815 416.832 582.541V499.203H343.407V582.541C343.4 602.815 359.839 619.253 380.12 619.253Z" fill="#FFD9AB"/>
<path d="M154.16 390.156C160.964 419.937 191.95 439.614 216.141 439.614C243.773 439.614 243.156 421.251 243.156 391.335C243.156 361.419 229.693 337.317 211.899 331.232C172.415 317.734 146.077 354.765 154.16 390.156Z" fill="#FFCB8C"/>
<path d="M606.649 390.156C599.845 419.937 568.859 439.614 544.668 439.614C517.036 439.614 517.659 421.251 517.659 391.335C517.659 361.419 531.123 337.317 548.917 331.232C588.394 317.734 614.732 354.765 606.649 390.156Z" fill="#FFCB8C"/>
<path d="M215.605 444.677C241.022 555.872 335.594 565.778 380.391 565.778C425.18 565.778 523.249 546.331 545.176 444.677C567.008 343.457 586.469 175.928 380.391 175.928C174.312 175.928 192.533 343.735 215.605 444.677Z" fill="#FFD9AB"/>
<path d="M480.485 313.832C471.378 310.729 463.525 305.267 454.357 302.232C445.216 299.203 434.998 300.721 426.623 295.713C422.286 293.118 421.574 287.155 425.057 283.543C434.395 273.867 450.366 276.937 461.743 281.131C473.262 285.373 485.045 294.046 487.769 306.561C488.657 310.681 485.005 315.37 480.485 313.832Z" fill="#70163C"/>
<path d="M253.062 306.555C255.78 294.067 267.59 285.353 279.089 281.124C290.5 276.923 306.423 273.854 315.774 283.537C319.257 287.148 318.546 293.111 314.209 295.706C305.841 300.714 295.602 299.203 286.468 302.225C277.28 305.267 269.46 310.715 260.34 313.825C255.813 315.37 252.161 310.681 253.062 306.555Z" fill="#70163C"/>
<path d="M451.938 398.688C445.975 398.688 439.714 396.093 435.5 391.878C431.468 387.847 428.432 381.233 428.697 375.44C428.968 369.43 430.94 363.196 435.5 359.001C440.053 354.827 445.643 352.191 451.938 352.191C457.901 352.191 464.162 354.78 468.377 359.001C472.409 363.033 475.444 369.646 475.187 375.44C474.916 381.457 472.937 387.684 468.377 391.878C463.83 396.052 458.233 398.688 451.938 398.688Z" fill="#322A2D"/>
<path d="M285.452 398.688C279.489 398.688 273.228 396.093 269.013 391.878C264.982 387.847 261.946 381.233 262.21 375.44C262.481 369.43 264.453 363.196 269.013 359.001C273.567 354.827 279.157 352.191 285.452 352.191C291.415 352.191 297.676 354.78 301.891 359.001C305.922 363.033 308.958 369.646 308.7 375.44C308.429 381.457 306.451 387.684 301.891 391.878C297.344 396.052 291.754 398.688 285.452 398.688Z" fill="#322A2D"/>
<path d="M439.213 339.338C441.211 343.519 442.98 348.14 445.88 351.792C448.746 355.397 454.269 357.796 455.251 362.539C455.766 365.026 454.547 367.594 451.979 368.305C445.345 370.142 439.707 363.027 436.827 357.938C433.683 352.388 431.989 346.27 433.9 340.029C434.578 337.82 438.081 336.966 439.213 339.338Z" fill="#322A2D"/>
<path d="M272.726 339.338C274.725 343.519 276.494 348.14 279.401 351.792C282.267 355.397 287.789 357.796 288.772 362.539C289.287 365.026 288.067 367.594 285.499 368.305C278.865 370.142 273.228 363.027 270.348 357.938C267.204 352.388 265.51 346.27 267.421 340.029C268.092 337.82 271.595 336.966 272.726 339.338Z" fill="#322A2D"/>
<path d="M320.653 441.064C326.826 461.582 347.378 477.011 369.061 477.397C390.744 477.784 411.851 463.107 418.77 442.819L320.653 441.064Z" fill="white"/>
<path d="M316.811 442.122C334.178 492.244 403.503 493.118 422.612 443.877C423.581 441.384 421.135 438.876 418.77 438.836C386.062 438.253 353.361 437.664 320.653 437.081C315.524 436.986 315.524 444.955 320.653 445.049C353.361 445.632 386.062 446.222 418.77 446.804C417.489 445.124 416.208 443.443 414.928 441.763C398.679 483.639 339.159 482.331 324.495 440.008C322.828 435.19 315.124 437.257 316.811 442.122Z" fill="#F19687"/>
<path d="M504.541 440.476C504.541 455.004 492.764 466.781 478.236 466.781C463.708 466.781 451.932 455.004 451.932 440.476C451.932 425.948 463.708 414.172 478.236 414.172C492.771 414.179 504.541 425.955 504.541 440.476Z" fill="#FFCB8C"/>
<path d="M288.285 440.476C288.285 455.004 276.508 466.781 261.98 466.781C247.452 466.781 235.676 455.004 235.676 440.476C235.676 425.948 247.452 414.172 261.98 414.172C276.508 414.172 288.285 425.955 288.285 440.476Z" fill="#FFCB8C"/>
<path d="M360.245 378.605C359.039 383.951 359.405 389.745 356.837 394.745C354.784 398.737 350.549 400.966 348.611 404.923C344.87 412.539 353.327 418.434 358.897 422.168C364.094 425.658 368.614 417.472 363.735 413.888C362.38 412.892 358.707 411.096 357.921 409.538C356.769 407.234 357.84 406.637 359.242 404.699C360.977 402.307 362.59 400.437 363.498 397.558C365.381 391.629 365.144 384.48 363.24 378.605C362.8 377.223 360.604 377.033 360.245 378.605Z" fill="#F19687"/>
<path d="M580.574 295.625C577.165 252.333 552.203 207.361 516.554 182.303C480.33 156.839 430.878 143.463 386.97 141.566C304.791 138.015 219.975 190.489 199.769 272.715C194.288 295.029 191.286 318.23 190.54 341.18C189.903 360.817 190.561 381.741 198.577 399.989C199.864 402.916 203.991 402.232 205.454 399.989C216.716 382.791 223.621 362.728 231.535 343.863C240.669 322.085 249.946 296.276 267.096 279.336C277.836 268.718 293.678 264.964 307.372 259.563C320.64 254.332 333.006 247.414 345.46 240.509C361.885 231.416 375.369 221.082 381.325 204.684C389.579 222.919 401.938 238.944 418.112 251.154C429.659 259.868 442.54 265.757 456.166 270.412C470.863 275.439 488.698 278.407 501.525 287.494C518.119 299.257 526.04 325.25 532.396 343.423C539.118 362.667 544.431 382.358 549.506 402.09C550.434 405.688 554.872 405.654 556.79 403.038C579.022 372.77 582.62 332.06 580.574 295.625Z" fill="#70163C"/>
<path d="M367.109 661.738C367.109 661.813 367.109 661.894 367.109 661.969C367.109 663.812 367.909 665.743 369.217 667.051C370.463 668.298 372.503 669.233 374.299 669.151C376.155 669.07 378.086 668.46 379.381 667.051C380.668 665.648 381.488 663.92 381.488 661.969C381.488 661.894 381.488 661.813 381.488 661.738C381.488 659.895 380.688 657.964 379.381 656.656C378.134 655.41 376.088 654.474 374.299 654.556C372.442 654.637 370.518 655.247 369.217 656.656C367.922 658.066 367.109 659.794 367.109 661.738Z" fill="#F9B7B7"/>
<path d="M363.362 689.629C363.362 689.704 363.362 689.785 363.362 689.859C363.362 691.703 364.162 693.634 365.47 694.941C366.716 696.188 368.763 697.123 370.552 697.049C372.408 696.967 374.333 696.358 375.634 694.941C376.921 693.539 377.741 691.811 377.741 689.859C377.741 689.785 377.741 689.704 377.741 689.629C377.741 687.786 376.941 685.855 375.634 684.547C374.387 683.3 372.347 682.365 370.552 682.44C368.695 682.521 366.764 683.131 365.47 684.547C364.175 685.95 363.362 687.684 363.362 689.629Z" fill="#F9B7B7"/>
<path d="M355.862 170.615C352.975 222.343 281.428 224.227 250.902 252.679C219.251 282.189 226.799 331.41 199.946 363.664C196.843 367.39 202.169 372.791 205.319 369.037C235.52 333.016 225.227 275.44 268.35 248.824C301.505 228.36 359.731 219.836 361.215 170.622C361.317 167.16 356.052 167.193 355.862 170.615Z" fill="#591230"/>
<path d="M199.763 289.33C196.056 299.928 193.427 310.716 192.065 321.855C191.544 326.097 198.394 326.178 198.787 321.855C199.749 311.251 201.491 300.856 204.323 290.584C205.143 287.623 200.759 286.485 199.763 289.33Z" fill="#591230"/>
<path d="M326.494 184.059C308.267 210.133 280.146 215.642 253.761 229.844C233.595 240.693 218.763 258.378 211.35 279.98C210.021 283.849 215.991 285.367 217.414 281.654C228.94 251.582 251.463 236.932 279.984 225.006C300.766 216.313 317.502 205.302 329.286 185.699C330.377 183.876 327.666 182.372 326.494 184.059Z" fill="#591230"/>
<path d="M390.622 177.317C397.9 214.66 432.125 234.1 464.067 248.628C501.715 265.744 552.731 289.46 547.771 339.25C547.48 342.151 552.508 342.869 552.908 339.948C558.064 302.043 528.196 273.943 497.304 257.877C458.755 237.834 406.803 223.882 393.929 176.41C393.346 174.255 390.209 175.176 390.622 177.317Z" fill="#591230"/>
<path d="M541.978 268.285C562.001 298.689 566.805 335.516 557.143 370.413C556.154 373.984 561.534 375.427 562.665 371.937C574.354 335.821 567.137 297.069 544.878 266.591C543.631 264.876 540.772 266.448 541.978 268.285Z" fill="#591230"/>
<path d="M567.659 287.393C573.31 296.988 575.119 307.369 573.561 318.36C572.985 322.446 579.185 324.275 579.862 320.094C581.881 307.64 579.056 295.294 572.226 284.724C570.389 281.878 565.917 284.439 567.659 287.393Z" fill="#591230"/>
<path d="M132.565 319.64C110.658 392.564 139.85 468.929 203.361 510.297C206.891 512.594 210.198 506.922 206.661 504.652C145.555 465.446 118.105 390.7 136.827 320.813C137.566 318.055 133.378 316.917 132.565 319.64Z" fill="#591230"/>
<path d="M181.834 464.971C190.439 478.462 200.942 490.51 213.01 501.012C215.788 503.431 219.834 499.23 217.015 497.008C204.676 487.291 194.22 475.894 185.486 462.836C183.989 460.587 180.357 462.653 181.834 464.971Z" fill="#591230"/>
<path d="M613.607 302.626C624.835 344.536 631.53 389.813 618.438 432.143C607.312 468.11 582.722 496.515 547.893 510.907C543.306 512.804 544.987 520.183 550.014 518.591C585.324 507.41 610.477 475.157 622.578 441.324C638.773 396.033 631.442 346.365 618.831 301.19C617.896 297.829 612.706 299.245 613.607 302.626Z" fill="#591230"/>
<path d="M565.999 461.901C557.956 490.564 536.062 509.747 508.132 518.318C503.585 519.714 505.469 526.362 510.083 525.399C540.541 519.05 563.993 492.969 571.162 463.324C571.975 459.984 566.934 458.581 565.999 461.901Z" fill="#591230"/>
<path d="M606.75 499.305C601.207 506.847 593.679 512.688 584.958 516.103C579.768 518.136 582.77 525.542 587.953 523.211C597.928 518.732 606.147 511.576 612.178 502.476C614.454 499.048 609.101 496.107 606.75 499.305Z" fill="#591230"/>
</g>
</svg>
