<svg width="765" height="766" viewBox="0 0 765 766" fill="none" xmlns="http://www.w3.org/2000/svg">
<path d="M382.776 765.138C593.826 765.138 764.915 594.048 764.915 382.999C764.915 171.949 593.826 0.859375 382.776 0.859375C171.726 0.859375 0.636719 171.949 0.636719 382.999C0.636719 594.048 171.726 765.138 382.776 765.138Z" fill="#A149CA"/>
<mask id="mask0_1098_2893" style="mask-type:luminance" maskUnits="userSpaceOnUse" x="0" y="0" width="765" height="766">
<path d="M382.776 765.138C593.826 765.138 764.915 594.048 764.915 382.999C764.915 171.949 593.826 0.859375 382.776 0.859375C171.726 0.859375 0.636719 171.949 0.636719 382.999C0.636719 594.048 171.726 765.138 382.776 765.138Z" fill="white"/>
</mask>
<g mask="url(#mask0_1098_2893)">
<path d="M681.137 586.644C662.787 533.832 640.013 483.039 637.608 428.031C643.266 384.102 641.253 339.035 630.798 296.069C617.388 240.959 588.001 192.558 540.487 160.596C494.858 129.901 438.448 115.088 383.887 112.791C349.675 111.348 314.745 115.522 282.532 127.455C249.16 139.821 221.107 160.738 196.659 186.325C150.935 235.755 122.381 299.931 114.121 366.668C107.101 397.492 108.219 428.614 102.717 459.865C99.4713 478.336 92.3904 494.992 82.0909 510.624C71.9676 525.992 60.5839 540.262 53.3404 557.338C53.2929 557.453 53.2726 557.568 53.2319 557.683C53.1235 557.873 53.0219 558.063 52.9405 558.286C42.4242 586.827 45.9816 618.003 62.5489 643.494C64.4394 646.401 68.7693 645.866 69.8331 642.539C74.7661 627.083 79.8684 611.742 86.8545 597.275C78.8927 647.777 94.3148 700.46 129.293 738.657C131.651 741.231 136.109 739.192 136.096 735.838C135.994 716.452 137.6 697.316 140.907 678.323C151.924 710.136 172.828 737.701 197.181 760.895C210.774 773.844 225.735 784.334 244.146 788.995C265.3 794.348 288.034 795.019 309.71 796.246C359.677 799.071 409.873 797.75 459.629 792.39C501.349 787.898 547.683 783.805 586.015 765.503C623.155 747.77 640.515 713.355 653.491 676.697C658.647 693.61 661.635 709.52 654.873 727.652C653.382 731.65 658.823 733.954 661.534 731.528C704.5 693.081 698.449 636.461 681.137 586.644Z" fill="#322A2D"/>
<path d="M640.63 1091.67C640.196 1074.98 635.371 1059.34 631.868 1042.97C628.216 1025.92 624.537 1008.86 621.094 991.753C613.322 953.151 602.738 915.11 593.821 876.758C575.092 796.212 556.526 715.448 532.322 636.332C521.359 600.48 464.291 616.214 476.135 651.822C502.508 731.094 518.099 813.375 538.014 894.389C547.534 933.121 556.546 972.428 571.914 1009.34C578.9 1026.12 586.137 1042.63 594.993 1058.52C603.111 1073.09 611.296 1087.89 624.259 1098.44C630.296 1103.36 640.86 1100.65 640.63 1091.67Z" fill="#FFD9AB"/>
<path d="M641.585 1091.67C641.931 1074.87 637.093 1058.97 633.813 1042.44C630.412 1025.32 626.909 1008.21 623.629 991.062C616.23 952.392 605.53 914.338 596.64 875.992C577.959 795.433 559.237 714.71 535.134 635.566C523.114 596.103 460.26 613.47 473.33 652.608C500.028 732.531 515.545 815.584 535.724 897.276C545.59 937.234 555.361 977.144 571.549 1015.1C584.165 1044.68 599.405 1081.3 625.716 1100.78C632.458 1105.76 641.436 1098.94 641.585 1091.67Z" fill="#FF7CA6"/>
<path d="M270.992 613.247L350.597 598.137H437.214L516.812 613.247C522.7 615.151 526.549 620.816 526.143 626.996L519.658 725.458C529.598 736.001 540.399 751.207 540.176 767.361C539.857 790.826 527.518 812.143 513.166 823.994L505.828 954.053C505.828 954.053 548.862 1020.38 558.105 1073.69C563.302 1103.65 443.767 1124.47 410.286 1124.47C382.728 1124.47 246.016 1118.79 256.478 1073.69C272.029 1006.68 313.844 954.053 313.844 954.053L261.662 626.989C261.262 620.816 265.104 615.151 270.992 613.247Z" fill="#FF2B6E"/>
<path d="M407.095 665.821C407.061 697.635 418.356 728.621 422.436 759.92C424.855 778.465 424.014 797.716 423.859 816.364C423.337 879.475 421.06 942.56 420.85 1005.67C420.721 1042.62 420.864 1079.58 422.747 1116.5C422.896 1119.47 427.531 1119.48 427.382 1116.5C423.96 1049.48 425.437 982.26 426.711 915.198C427.66 865.232 431.556 813.829 426.867 763.965C425.647 750.989 422.158 738.263 419.617 725.504C415.646 705.59 412.658 685.499 408.687 665.598C408.497 664.696 407.095 664.927 407.095 665.821Z" fill="#FF7CA6"/>
<path d="M373.675 662.549C381.813 699.661 391.672 737.776 395.128 775.715C396.89 795.033 396.266 814.785 396.382 834.158C396.761 901.451 396.355 968.757 395.968 1036.05C395.812 1063.36 395.677 1090.66 395.379 1117.96C395.345 1120.95 399.946 1120.95 400.007 1117.96C401.206 1059.89 401.586 1001.79 401.626 943.706C401.667 888.82 403.442 833.216 399.587 778.419C396.856 739.592 385.662 699.411 375.932 661.919C375.552 660.462 373.35 661.086 373.675 662.549Z" fill="#FF7CA6"/>
<path d="M393.969 672.143C337.214 635.139 329.286 634.265 319.088 604.119L350.596 598.143H437.214L454.689 601.456C456.322 620.219 457.176 631.399 393.969 672.143Z" fill="#FFD9AB"/>
<path d="M393.97 672.143C408.925 656.084 430.174 641.909 440.216 624.203C444.323 616.959 433.766 607.954 432.763 606.05C427.931 596.869 389.491 588.412 389.491 588.412C389.491 588.412 421.914 582.002 434.287 586.488C452.081 592.939 484.599 602.174 490.521 615.035C492.209 618.694 448.585 677.91 448.585 677.91L436.672 659.303C433.196 653.882 396.301 669.636 393.97 672.143Z" fill="white"/>
<path d="M393.97 672.143C379.015 656.084 357.766 641.909 347.724 624.203C343.618 616.959 354.175 607.954 355.177 606.05C360.009 596.869 398.449 588.412 398.449 588.412C398.449 588.412 366.026 582.002 353.653 586.488C335.852 592.939 303.341 602.174 297.419 615.035C295.732 618.694 339.355 677.91 339.355 677.91L351.268 659.303C354.744 653.882 391.639 669.636 393.97 672.143Z" fill="white"/>
<path d="M394.194 639.369C373.92 639.369 357.481 622.93 357.481 602.656V519.318H430.906V602.656C430.906 622.93 414.468 639.369 394.194 639.369Z" fill="#FFD9AB"/>
<path d="M620.147 410.272C613.344 440.052 582.357 459.73 558.167 459.73C530.534 459.73 531.157 441.367 531.157 411.444C531.157 381.528 544.621 357.426 562.415 351.341C601.892 337.85 628.23 374.881 620.147 410.272Z" fill="#FFCB8C"/>
<path d="M167.659 410.272C174.462 440.052 205.448 459.73 229.639 459.73C257.271 459.73 256.648 441.367 256.648 411.444C256.648 381.528 243.184 357.426 225.39 351.341C185.913 337.85 159.575 374.881 167.659 410.272Z" fill="#FFCB8C"/>
<path d="M558.701 464.791C533.284 575.985 438.705 585.891 393.915 585.891C349.126 585.891 251.05 566.444 229.13 464.791C207.298 363.571 187.837 196.041 393.915 196.041C599.994 196.041 581.773 363.849 558.701 464.791Z" fill="#FFD9AB"/>
<path d="M296.063 486.894C310.587 486.894 322.361 475.12 322.361 460.596C322.361 446.073 310.587 434.299 296.063 434.299C281.54 434.299 269.766 446.073 269.766 460.596C269.766 475.12 281.54 486.894 296.063 486.894Z" fill="#FFCB8C"/>
<path d="M486.021 460.597C486.021 475.125 497.798 486.902 512.326 486.902C526.854 486.902 538.63 475.125 538.63 460.597C538.63 446.07 526.854 434.293 512.326 434.293C497.798 434.293 486.021 446.07 486.021 460.597Z" fill="#FFCB8C"/>
<path d="M411.059 398.725C409.304 404.362 416.446 410.894 419.495 414.858C421.894 417.975 425.682 422.095 426.576 426.039C428.304 433.635 417.957 433.086 412.99 433.357C406.838 433.696 406.804 442.654 412.99 442.945C424.408 443.473 438.76 436.928 433.928 423.328C430.188 412.799 418.201 408.293 413.905 398.352C413.336 397.044 411.418 397.566 411.059 398.725Z" fill="#F19687"/>
<path d="M403.22 681.854C403.22 681.928 403.22 682.01 403.22 682.084C403.22 683.927 402.42 685.858 401.112 687.166C399.865 688.413 397.819 689.348 396.03 689.273C394.174 689.192 392.242 688.582 390.948 687.166C389.661 685.763 388.848 684.036 388.848 682.084C388.848 682.01 388.848 681.928 388.848 681.854C388.848 680.011 389.647 678.079 390.948 676.772C392.195 675.525 394.241 674.59 396.03 674.664C397.887 674.746 399.818 675.356 401.112 676.772C402.406 678.181 403.22 679.909 403.22 681.854Z" fill="white"/>
<path d="M418.371 763.795C418.371 763.869 418.371 763.951 418.371 764.025C418.371 765.868 417.571 767.799 416.264 769.107C415.017 770.354 412.97 771.289 411.182 771.208C409.325 771.126 407.4 770.517 406.1 769.107C404.812 767.705 403.992 765.977 403.992 764.025C403.992 763.951 403.992 763.869 403.992 763.795C403.992 761.952 404.792 760.021 406.1 758.713C407.346 757.466 409.386 756.531 411.182 756.612C413.038 756.694 414.969 757.303 416.264 758.713C417.558 760.116 418.371 761.843 418.371 763.795Z" fill="white"/>
<path d="M438.19 474.609C407.447 498.644 378.534 482.646 353.327 459.363C348.205 454.634 341.524 461.661 345.799 466.892C358.247 482.111 376.738 495.053 396.565 497.668C413.248 499.864 434.49 493.982 442.689 478.079C444.254 475.043 440.697 472.651 438.19 474.609Z" fill="#F19687"/>
<path d="M479.003 418.484C493.286 418.484 512.056 401.645 509.156 387.565C506.913 376.689 490.285 374.067 479.396 376.053C451.6 381.128 450.388 418.484 479.003 418.484Z" fill="#322A2D"/>
<path d="M454.711 374.317C456.486 377.272 459.244 379.738 462.517 380.89C465.918 382.09 469.225 381.243 472.687 380.924C478.006 380.436 479.484 388.141 475.31 390.593C465.037 396.631 450.509 387.869 448.429 376.96C447.724 373.26 452.617 370.828 454.711 374.317Z" fill="#322A2D"/>
<path d="M336.578 418.484C322.294 418.484 303.524 401.645 306.424 387.565C308.661 376.689 325.296 374.067 336.185 376.053C363.98 381.128 365.193 418.484 336.578 418.484Z" fill="#322A2D"/>
<path d="M302.792 374.317C304.568 377.272 307.325 379.738 310.598 380.89C314 382.09 317.306 381.243 320.769 380.924C326.088 380.436 327.565 388.141 323.384 390.593C313.112 396.631 298.584 387.869 296.504 376.96C295.806 373.26 300.698 370.828 302.792 374.317Z" fill="#322A2D"/>
<path d="M508.809 333.289C500.441 317.582 479.849 306.083 462.17 311.348C450.929 314.696 455.719 332.327 467.028 328.959C473.378 327.069 479.103 329.054 485.371 330.477C491.68 331.907 496.707 334.366 500.854 339.435C504.628 344.036 511.404 338.161 508.809 333.289Z" fill="#322A2D"/>
<path d="M298.103 340.221C308.816 332.476 324.773 325.232 338.271 328.959C349.614 332.09 354.459 314.472 343.123 311.348C322.686 305.711 305.353 318.334 291.964 332.266C288.142 336.236 293.272 343.71 298.103 340.221Z" fill="#322A2D"/>
<path d="M568.966 277.793C559.426 247.979 539.145 222.352 516.249 201.36C493.048 180.09 464.921 167.412 433.785 163.123C390.798 157.214 340.886 160.785 300.305 176.688C258.172 193.195 229.706 228.518 217.787 271.688C208.876 308.041 211.682 345.058 221.635 380.883C222.74 384.854 228.052 384.468 229.319 380.883C235.641 362.995 241.787 345.038 248.313 327.224C254.316 310.84 261.736 294.618 277.165 285.145C291.848 276.126 309.859 273.26 323.831 264.065C319.339 274.947 314.385 285.613 308.863 296.061C307.691 298.284 308.66 301.252 311.241 301.916C352.297 312.405 396.111 298.894 424.604 268.659C421.067 278.01 416.567 286.947 411.018 295.539C409.019 298.636 412.305 302.078 415.517 301.394C434.307 297.382 452.277 290.498 468.654 280.382C476.318 275.652 483.609 270.258 490.392 264.336C493.902 261.273 497.744 255.588 501.904 253.549C509.473 249.849 513.695 257.648 518.004 263.381C543.387 297.118 558.247 337.767 567.787 378.552C568.689 382.408 574.502 382.286 575.471 378.552C583.853 346.285 579.002 309.152 568.966 277.793Z" fill="#322A2D"/>
<path d="M320.789 1090.4C312.414 1078.79 308.328 1065.36 302.237 1052.53C295.705 1038.77 289.2 1025 282.735 1011.2C271.25 986.672 260.957 959.412 252.934 932.315C249.472 920.619 246.429 908.775 244.193 896.781C243.658 893.922 243.211 891.049 242.75 888.176C243.577 893.305 243.075 891.422 242.818 887.729C242.54 883.697 242.757 879.597 242.445 875.599C242.032 870.294 241.862 878.337 241.937 878.262C243.421 876.846 243.746 870.897 244.248 868.939C246.89 858.605 249.485 848.265 252.047 837.911C256.627 819.42 261.113 800.908 265.687 782.416C270.708 762.142 275.851 741.896 281.353 721.744C287.539 699.078 296.233 676.487 300.922 653.509C304.08 638.06 297.764 622.157 282.525 616.025C269.312 610.712 249.221 614.324 242.852 629.028C226.007 667.901 217.028 711.329 206.844 752.385C201.945 772.13 197.209 791.909 192.391 811.675C187.648 831.122 180.601 851.098 178.785 871.087C176.799 892.899 182.864 916.167 188.779 937.004C197.52 967.787 209.426 997.845 224.103 1026.27C232.877 1043.26 242.879 1058.82 254.554 1073.96C265.999 1088.81 280.187 1098.77 294.126 1110.99C307.657 1122.86 332.762 1106.99 320.789 1090.4Z" fill="#FF7CA6"/>
<path d="M345.738 191.373C342.154 214.134 332.959 234.577 318.404 252.452C315.497 256.023 320.647 260.068 323.439 256.335C337.695 237.267 346.125 215.414 349.099 191.827C349.343 189.936 346.036 189.469 345.738 191.373Z" fill="#21171B"/>
<path d="M367.869 192.959C368.553 227.11 367.273 268.41 331.563 284.72C327.504 286.57 330.452 293.739 334.633 292.004C374.13 275.586 374.794 229.258 372.477 192.959C372.287 190.025 367.808 189.971 367.869 192.959Z" fill="#21171B"/>
<path d="M390.06 195.819C393.326 229.008 394.065 270.009 359.372 286.99C354.893 289.185 358.809 295.562 363.234 293.604C401.22 276.799 400.014 230.431 395.413 195.819C394.973 192.492 389.715 192.343 390.06 195.819Z" fill="#21171B"/>
<path d="M405.266 211.207C412.909 226.04 416.974 240.181 416.141 256.985C415.917 261.505 422.998 261.512 423.175 256.985C423.839 239.89 419.041 222.347 408.2 208.944C406.81 207.223 404.344 209.411 405.266 211.207Z" fill="#21171B"/>
<path d="M430.087 204.77C442.642 229.739 455.097 266.214 426.096 285.065C422.023 287.715 425.662 294.084 429.931 291.624C463.912 271.994 448.761 229.224 433.793 202.601C432.431 200.175 428.853 202.317 430.087 204.77Z" fill="#21171B"/>
<path d="M462.733 228.39C465.68 238.148 465.206 247.892 461.628 257.398C460.076 261.518 466.947 263.51 468.289 259.235C471.643 248.569 471.203 237.572 467.049 227.198C466.012 224.596 461.872 225.565 462.733 228.39Z" fill="#21171B"/>
<path d="M315.077 206.01C296.111 260.869 199.682 276.69 212.719 345.812C213.6 350.481 220.396 348.408 219.739 343.874C214.318 306.281 247.785 282.85 274.137 263.227C293.95 248.468 312.387 231.657 319.577 207.25C320.437 204.343 316.053 203.198 315.077 206.01Z" fill="#21171B"/>
<path d="M201.342 285.309C195.867 299.695 194.824 314.717 198.544 329.658C199.655 334.117 206.309 332.22 205.387 327.775C202.528 314.013 203.402 300.413 208.247 287.22C209.839 282.87 202.962 281.054 201.342 285.309Z" fill="#21171B"/>
<path d="M485.493 219.37C520.627 244.428 551.2 280.043 554.059 324.791C554.358 329.514 561.689 329.582 561.466 324.791C559.236 276.174 526.596 240.945 487.16 216.525C485.324 215.386 483.792 218.158 485.493 219.37Z" fill="#21171B"/>
<path d="M564.582 281.25C570.586 295.594 572.727 310.63 570.918 326.08C570.43 330.213 577.328 330.389 577.518 326.08C578.236 309.858 574.747 294.497 567.035 280.22C566.331 278.919 563.986 279.833 564.582 281.25Z" fill="#21171B"/>
<path d="M175.071 280.626C139.375 315.733 139.707 367.915 140.426 414.506C140.907 445.961 140.683 478.316 126.921 507.331C115.429 531.562 97.4116 552.154 87.1867 577.042C85.5875 580.932 92.2009 583.73 94.0101 579.922C105.394 555.976 121.88 534.916 133.013 510.895C143.909 487.389 146.958 461.735 147.405 436.074C148.286 384.983 139.565 324.487 178.724 284.285C181.048 281.893 177.45 278.288 175.071 280.626Z" fill="#21171B"/>
<path d="M165.083 442.688C161.621 522.692 99.0918 590.723 112.048 672.747C112.712 676.962 120.145 676.013 119.569 671.731C108.68 590.507 169.935 522.794 169.691 442.688C169.677 439.714 165.212 439.734 165.083 442.688Z" fill="#21171B"/>
<path d="M192.492 469.249C218.539 548.556 159.906 627.442 182.877 707.256C184.117 711.559 190.771 709.75 189.599 705.407C168.193 625.91 224.99 546.97 197.411 467.894C196.341 464.818 191.462 466.105 192.492 469.249Z" fill="#21171B"/>
<path d="M610.673 454.364C601.98 484.917 614.461 513.728 628.697 540.419C637.256 556.464 646.457 572.462 651.072 590.195C656.106 609.541 654.419 628.703 648.504 647.601C647.047 652.25 654.067 654.032 655.707 649.587C666.731 619.732 661.636 589.518 647.996 561.492C631.787 528.188 605.652 494.694 614.637 455.454C615.227 452.886 611.398 451.809 610.673 454.364Z" fill="#21171B"/>
<path d="M566.501 499.206C589.343 563.164 605.761 650.378 565.844 711.024C563.065 715.238 569.74 719.026 572.565 714.954C614.922 653.759 595.949 562.182 571.908 497.722C570.661 494.374 565.281 495.784 566.501 499.206Z" fill="#21171B"/>
<path d="M538.929 553.998C547.853 584.287 549.642 615.26 545.353 646.49C544.702 651.24 551.919 653.368 552.677 648.51C557.746 616.073 554.615 583.636 544.451 552.48C543.313 548.991 537.879 550.434 538.929 553.998Z" fill="#21171B"/>
</g>
</svg>
