<svg width="771" height="771" viewBox="0 0 771 771" fill="none" xmlns="http://www.w3.org/2000/svg">
<path d="M767.413 388.568C769.039 177.518 599.266 5.11107 388.217 3.48599C177.167 1.86091 4.75994 171.633 3.13486 382.683C1.50977 593.733 171.282 766.14 382.332 767.765C593.381 769.39 765.788 599.618 767.413 388.568Z" fill="#CF9958"/>
<mask id="mask0_1098_3281" style="mask-type:luminance" maskUnits="userSpaceOnUse" x="3" y="3" width="765" height="765">
<path d="M767.413 388.568C769.039 177.518 599.266 5.11107 388.217 3.48599C177.167 1.86091 4.75994 171.633 3.13486 382.683C1.50977 593.733 171.282 766.14 382.332 767.765C593.381 769.39 765.788 599.618 767.413 388.568Z" fill="white"/>
</mask>
<g mask="url(#mask0_1098_3281)">
<path d="M-44.8623 1244.03C-39.096 1239.52 -30.5717 1236.5 -24.1752 1232.59C-15.3867 1227.23 -7.10648 1220.99 1.16701 1214.85C19.801 1201.05 36.8292 1185.64 53.4304 1169.48C84.8168 1138.94 113.798 1105.57 137.649 1068.73C155.511 1041.15 166.149 1010.05 177.933 979.579C192.481 941.958 206.602 904.175 219.524 865.959C235.366 819.082 250.07 771.616 260.085 723.12C264.577 701.369 253.763 676.075 230.345 670.742C208.987 665.877 182.879 677.172 177.966 700.482C160.803 781.956 131.619 860.87 102.421 938.665C96.8576 953.484 91.2065 968.276 85.5486 983.061C83.5564 988.272 81.4626 993.462 79.5856 998.714C77.4377 1004.7 80.9612 996.41 80.7511 996.105C80.9273 996.356 78.183 1001.57 78.3253 1001.3C76.5635 1004.92 74.6663 1008.48 72.6945 1011.99C68.3781 1019.69 63.6349 1027.15 58.6681 1034.45C55.9983 1038.38 53.2474 1042.26 50.4489 1046.11C49.0666 1048 40.9353 1058.65 45.8411 1052.38C32.8041 1069.04 19.0827 1085.23 5.54428 1101.49C-9.92532 1120.08 -26.2012 1137.93 -41.1491 1156.95C-48.684 1166.54 -56.246 1176.27 -63.2863 1186.23C-68.6122 1193.75 -73.0844 1203.84 -78.6882 1210.21C-99.4498 1233.86 -68.7206 1262.67 -44.8623 1244.03Z" fill="#FFD9AB"/>
<path d="M233.509 667.258C204.569 660.665 174.809 675.952 166.522 705.292C163.785 714.975 159.461 724.238 155.667 733.534C163.852 713.471 157.374 729.428 155.369 734.036C153.803 737.627 152.231 741.218 150.639 744.803C146.356 754.459 141.993 764.074 137.568 773.662C130.535 788.887 123.352 804.052 116 819.142C146.926 838.698 182.567 849.424 218.609 857.576C220.655 853.232 222.695 848.896 224.721 844.545C234.485 823.56 243.951 802.439 252.99 781.129C259.462 765.869 267.091 750.291 271.543 734.246C279.153 706.823 262.145 673.783 233.509 667.258Z" fill="#FF2B6E"/>
<path d="M620.703 1268.49C643.159 1257.77 648.837 1233.94 653.465 1211.8C657.172 1194.06 659.239 1175.89 661.387 1157.9C664.903 1128.53 665.703 1099.2 665.256 1069.64C664.077 991.348 655.586 914.454 636.959 838.339C626.226 794.478 613.758 751.051 602.171 707.407C596.554 686.259 572.072 671.277 550.714 678.189C528.997 685.215 515.459 706.987 521.496 729.646C540.604 801.349 562.66 872.694 573.732 946.227C574.017 948.117 575.392 958.187 574.559 951.715C575.108 955.957 575.616 960.199 576.09 964.448C577.161 973.995 578.055 983.563 578.787 993.144C580.359 1013.65 581.077 1034.19 581.586 1054.74C582.331 1084.84 582.189 1114.95 580.21 1145.01C579.146 1161.15 577.127 1177.16 575.582 1193.25C573.19 1218.17 570.331 1246.06 590.923 1264.64C599.664 1272.53 610.336 1273.43 620.703 1268.49Z" fill="#FFD9AB"/>
<path d="M558.385 666.67L436.878 635.168H330.84L209.333 666.67C202.123 669.001 197.414 675.932 197.915 683.494L208.079 1264.34C208.079 1264.34 301.236 1278.77 383.855 1278.77C466.475 1278.77 552.903 1264.34 552.903 1264.34L569.796 683.494C570.304 675.932 565.595 669.001 558.385 666.67Z" fill="#FF2B6E"/>
<path d="M438.544 648.571L433.76 650.658C401.94 664.542 365.77 664.542 333.95 650.658L329.166 648.571V575.654H438.544V648.571Z" fill="#FFD097"/>
<path d="M463.764 133.1C458.553 122.529 446.248 117.691 435.501 114.418C415.14 108.205 392.677 106.951 371.631 109.601C345.977 112.826 322.742 127.266 296.98 129.014C271.136 130.762 247.223 118.274 230.399 99.2877C228.793 97.4717 225.628 97.614 223.995 99.2877C216.176 107.324 214.712 118.735 216.765 129.719C205.117 120.639 191.383 114.913 175.777 113.558C172.715 113.294 170.79 116.655 171.414 119.29C173.406 127.754 176.333 135.661 180.175 143.122C162.442 133.595 140.149 127.096 142.074 151.47C143.259 166.499 154.325 182.212 163.099 193.772C171.088 204.295 180.568 213.775 191.403 221.371C160.274 287.667 176.672 375.979 187.913 441.503C206.899 552.182 276.868 583.04 393.151 583.04C509.441 583.04 567.417 553.801 590.428 441.503C612.26 334.889 648.173 166.065 463.764 133.1Z" fill="#FFCB24"/>
<path d="M271.455 411.58C271.455 444.79 244.534 471.711 211.325 471.711C178.122 471.711 151.201 444.79 151.201 411.58C151.201 378.371 178.122 351.457 211.325 351.457C244.534 351.45 271.455 378.371 271.455 411.58Z" fill="#FFD097"/>
<path d="M616.523 411.58C616.523 444.79 589.602 471.711 556.393 471.711C523.184 471.711 496.263 444.79 496.263 411.58C496.263 378.371 523.184 351.457 556.393 351.457C589.602 351.45 616.523 378.371 616.523 411.58Z" fill="#FFD097"/>
<path d="M555.518 471.906C555.518 575.023 478.665 592.505 383.862 592.505C289.059 592.505 212.205 575.023 212.205 471.906C212.205 368.789 169.191 204.268 383.862 204.268C598.532 204.268 555.518 368.789 555.518 471.906Z" fill="#FFD9AB"/>
<path d="M260.959 332.531C279.038 325.057 296.953 322.211 316.475 323.898C329.478 325.023 332.622 303.11 319.585 300.907C295.571 296.849 271.421 303.421 254.603 321.608C250.592 325.945 254.488 335.207 260.959 332.531Z" fill="#FFCB24"/>
<path d="M513.121 321.607C496.303 303.421 472.153 296.855 448.139 300.907C435.244 303.089 438.104 325.029 451.249 323.898C470.764 322.217 488.687 325.056 506.765 332.53C513.223 335.207 517.125 325.944 513.121 321.607Z" fill="#FFCB24"/>
<path d="M301.235 403.61C307.157 403.61 313.364 401.036 317.552 396.855C321.556 392.85 324.565 386.291 324.307 380.538C324.043 374.575 322.078 368.382 317.552 364.228C313.032 360.081 307.489 357.473 301.235 357.473C295.32 357.473 289.106 360.048 284.919 364.228C280.914 368.226 277.905 374.792 278.163 380.538C278.434 386.508 280.392 392.694 284.919 396.855C289.438 400.995 294.988 403.61 301.235 403.61Z" fill="#322A2D"/>
<path d="M466.481 403.61C472.397 403.61 478.61 401.036 482.798 396.855C486.803 392.85 489.811 386.291 489.553 380.538C489.289 374.575 487.324 368.382 482.798 364.228C478.285 360.081 472.735 357.473 466.481 357.473C460.559 357.473 454.345 360.048 450.165 364.228C446.16 368.226 443.151 374.792 443.409 380.538C443.68 386.508 445.638 392.694 450.165 396.855C454.677 400.995 460.227 403.61 466.481 403.61Z" fill="#322A2D"/>
<path d="M369.381 372.191C365.756 386.522 361.88 400.928 357.509 415.056C355.314 422.143 352.868 429.17 350.313 436.129C348.145 442.031 343.117 449.986 342.751 456.233C341.742 473.397 372.972 481.935 385.63 481.467C393.653 481.169 393.544 469.629 385.63 469.081C377.377 468.511 358.16 466.858 354 457.738C351.249 451.707 359.983 434.869 361.785 429.041C367.436 410.78 371.861 392.566 374.795 373.675C375.324 370.212 370.289 368.613 369.381 372.191Z" fill="#F1A567"/>
<path d="M338.93 496.28C346.763 506.247 355.531 527.463 367.85 530.437C375.412 532.26 383.408 530.918 390.821 528.56C410.478 522.32 425.954 498.312 439.086 482.402C408.967 501.504 336.22 492.831 338.93 496.28Z" fill="white"/>
<path d="M335.488 498.293C348.728 516.256 356.114 538.881 382.771 534.605C410.268 530.194 425.67 505.211 441.905 485.222C444.602 481.902 441.234 476.495 437.081 478.968C415.811 491.591 387.799 491.348 363.798 491.429C360.309 491.442 332.134 487.756 335.088 497.344C336.593 502.23 344.283 500.15 342.772 495.223C339.608 498.489 338.91 499.926 340.672 499.526C341.071 499.438 341.471 499.404 341.885 499.418C342.366 499.757 343.897 499.201 344.493 499.336C347.604 500.055 351.866 499.343 355.05 499.357C364.828 499.411 374.613 499.391 384.377 498.869C403.553 497.852 424.26 495.826 441.099 485.832C439.493 483.745 437.88 481.658 436.274 479.571C424.274 494.342 412.707 513.485 395.212 522.402C382.649 528.805 368.237 530.032 358.703 518.784C352.354 511.289 348.18 502.148 342.366 494.261C339.357 490.189 332.439 494.16 335.488 498.293Z" fill="#F1A567"/>
<path d="M571.313 289.882C565.235 254.505 549.603 219.121 520.378 196.916C489.819 173.694 447.015 169.053 409.808 166.702C372.418 164.337 331.707 165.909 296.716 180.667C265.384 193.88 236.403 219.744 219.355 249.091C209.319 266.377 203.851 285.566 203.173 305.521C202.211 333.893 208.791 361.85 205.118 390.228C204.441 395.439 212.585 396.117 214.008 391.434C227.852 345.913 244.839 301.524 264.882 258.394C266.61 267.135 262.856 276.446 259.34 284.848C257.951 288.175 261.908 291.217 264.91 290.418C309.733 278.411 352.151 259.587 391.079 234.414C393.233 245.425 393.796 256.348 392.834 267.684C392.549 271.059 396.906 273.39 399.644 271.594C415.208 261.369 429.18 249.484 441.641 235.763C453.533 261.884 478.747 277.218 500.606 294.992C529.885 318.789 543.661 352.757 544.887 390.242C545.002 393.759 550.037 396.74 552.612 393.44C574.762 365.076 576.402 324.095 571.313 289.882Z" fill="#FFCB24"/>
<path d="M538.91 870.484C564.313 872.334 583.245 869.264 604.725 864.21C623.732 859.737 638.402 855.048 651.642 847.527C642.42 801.789 631.504 756.417 619.599 711.309C611.969 682.409 578.455 661.959 549.304 671.398C519.605 681.014 501.188 710.726 509.394 741.693C520.222 782.606 530.223 829.056 538.91 870.484Z" fill="#FF2B6E"/>
<path d="M197.149 713.851C194.141 755.029 193.138 796.661 196.411 837.872C196.932 844.472 207.212 844.594 206.805 837.872C204.318 796.525 201.994 755.3 202.062 713.851C202.069 710.653 197.373 710.728 197.149 713.851Z" fill="#E2215E"/>
<path d="M570.5 714.956C562.308 760.653 559.035 807.509 555.708 853.769C555.207 860.735 566.224 860.775 566.604 853.769C569.07 807.713 573.698 761.69 575.331 715.613C575.426 712.889 571.002 712.191 570.5 714.956Z" fill="#E2215E"/>
<path d="M235.555 145.691C260.45 158.463 288.598 161.14 315.648 154.066C346.689 145.948 374.077 128.771 406.534 125.762C410.336 125.41 410.478 119.589 406.534 119.725C378.861 120.68 354.135 133.995 328.522 142.987C297.922 153.734 267.287 153.917 236.633 143.136C235.142 142.608 234.146 144.966 235.555 145.691Z" fill="#FBBF00"/>
<path d="M198.077 171.351C222.932 198.387 260.471 201.707 294.886 194.985C314.577 191.137 333.597 183.697 350.822 173.431C371.069 161.363 388.246 145.758 410.81 137.782C414.543 136.461 413.066 130.688 409.157 131.779C392.359 136.475 378.306 146.625 364.096 156.349C347.393 167.773 329.979 177.219 310.512 183.08C274.958 193.779 229.477 196.259 200.239 169.196C198.789 167.854 196.743 169.901 198.077 171.351Z" fill="#FBBF00"/>
<path d="M424.159 144.661C399.013 161.527 403.953 196.213 386.64 218.547C383.713 222.328 388.673 227.715 392.055 223.961C411.752 202.115 403.899 166.731 425.819 146.809C426.958 145.779 425.46 143.787 424.159 144.661Z" fill="#FBBF00"/>
<path d="M434.716 165.537C439.662 183.961 442.047 202.493 440.875 221.541C440.557 226.663 448.532 226.643 448.844 221.541C450.077 201.484 446.357 182.328 436.708 164.697C436.112 163.606 434.397 164.351 434.716 165.537Z" fill="#FBBF00"/>
<path d="M319.314 202.948C299.02 208.342 279.159 224.489 265.96 240.385C262.707 244.302 268.311 249.967 271.59 246.016C278.19 238.068 284.953 230.431 292.677 223.547C301.1 216.039 310.708 210.517 319.639 203.741C320.025 203.463 319.829 202.813 319.314 202.948Z" fill="#FBBF00"/>
<path d="M466.184 183.115C471.117 210.151 502.957 223.066 522.058 238.854C550.043 261.981 570.459 292.148 569.667 329.565C569.538 335.589 578.333 335.365 578.882 329.565C581.803 298.51 566.096 269.387 544.772 247.866C533.971 236.971 521.645 227.525 508.811 219.157C493.918 209.447 473.725 201.193 469.362 182.241C468.881 180.147 465.804 181.048 466.184 183.115Z" fill="#FBBF00"/>
<path d="M230.541 248.522C213.561 276.453 204.366 305.603 204.4 338.447C204.406 343.576 212.375 343.583 212.368 338.447C212.334 308.219 219.517 277.232 234.627 250.908C236.145 248.258 232.12 245.92 230.541 248.522Z" fill="#FBBF00"/>
<path d="M512.213 183.223C532.981 194.545 550.267 209.256 564.781 227.904C567.837 231.827 573.407 226.291 570.283 222.402C555.281 203.7 535.719 189.111 513.629 179.862C511.698 179.056 510.417 182.24 512.213 183.223Z" fill="#FBBF00"/>
<path d="M257.896 438.793C257.896 445.935 266.19 451.728 276.422 451.728C286.654 451.728 294.948 445.941 294.948 438.793C294.948 431.651 286.654 425.857 276.422 425.857C266.19 425.857 257.896 431.651 257.896 438.793Z" fill="#FFD097"/>
<path d="M472.777 438.793C472.777 445.935 481.071 451.728 491.303 451.728C501.535 451.728 509.828 445.941 509.828 438.793C509.828 431.651 501.535 425.857 491.303 425.857C481.071 425.857 472.777 431.651 472.777 438.793Z" fill="#FFD097"/>
</g>
</svg>
