<svg width="766" height="766" viewBox="0 0 766 766" fill="none" xmlns="http://www.w3.org/2000/svg">
<path d="M383 765.138C594.049 765.138 765.139 594.048 765.139 382.999C765.139 171.949 594.049 0.859375 383 0.859375C171.95 0.859375 0.860352 171.949 0.860352 382.999C0.860352 594.048 171.95 765.138 383 765.138Z" fill="#FF2B6E"/>
<mask id="mask0_1098_2988" style="mask-type:luminance" maskUnits="userSpaceOnUse" x="0" y="0" width="766" height="766">
<path d="M383 765.138C594.049 765.138 765.139 594.048 765.139 382.999C765.139 171.949 594.049 0.859375 383 0.859375C171.95 0.859375 0.860352 171.949 0.860352 382.999C0.860352 594.048 171.95 765.138 383 765.138Z" fill="white"/>
</mask>
<g mask="url(#mask0_1098_2988)">
<path d="M384.666 99.8359C121.351 99.8359 161.62 294.666 182.077 413.944C187.749 447.025 199.952 472.922 216.682 493.047C215.991 505.264 222.482 516.14 232.064 524.366C241.089 531.887 251.294 540.554 258.28 550.054C261.959 555.061 263.62 558.835 270.66 559.73C274.658 560.238 278.256 559.188 281.522 557.358C282.057 562.969 285.147 567.637 292.567 569.02C300.542 570.504 306.525 566.574 311.153 561.065C313.233 568.904 317.617 575.857 326.684 576.934C340.019 578.52 345.318 564.277 349.072 554.234C349.126 554.099 349.166 553.963 349.221 553.828C360.93 554.966 372.794 555.488 384.666 555.488C394.742 555.488 404.655 555.224 414.379 554.628C418.072 565.178 423.228 577.171 435.174 576.975C445.115 576.812 449.973 569.413 452.25 561.017C456.891 566.58 462.915 570.605 470.891 569.02C478.378 567.529 481.481 562.745 481.942 557.013C488.406 560.624 495.779 561.729 501.877 555.461C505.272 551.978 507.278 546.727 510.564 542.858C516.154 536.278 522.327 530.146 528.73 524.373C551.864 503.333 569.705 472.441 578.521 442.234C581.753 433.459 584.687 424.088 587.255 413.951C616.947 296.624 647.988 99.8359 384.666 99.8359Z" fill="#322A2D"/>
<path d="M111.681 1199.63C112.19 1198.73 115.429 1193.5 112.068 1198.3C113.646 1196.04 116.194 1193.65 117.698 1191.57C120.05 1188.31 122.252 1184.88 124.474 1181.54C129.868 1173.42 134.212 1164.81 138.501 1156.06C149.735 1133.18 157.535 1108.96 165.713 1084.89C176.616 1052.82 187.911 1020.04 196.449 987.247C214.683 917.176 224.929 844.7 237.044 773.403C241.577 746.706 244.796 719.175 251.619 692.932C257.216 671.404 244.525 645.71 221.879 640.553C199.559 635.471 175.599 647.255 169.501 670.293C163.687 692.268 160.767 715.265 156.85 737.626C150.115 776.093 143.373 814.554 136.59 853.015C130.647 886.705 124.739 920.477 117.095 953.828C110.225 983.812 98.7257 1012.48 91.2111 1042.32C84.8755 1067.46 79.1159 1093.16 74.9622 1118.75C73.5867 1127.23 72.5703 1135.76 71.5133 1144.28C71.2694 1146.26 71.0118 1148.24 70.7611 1150.22C71.8927 1141.27 69.9345 1155.45 69.6702 1158.7C69.2636 1163.71 69.0264 1168.78 68.7418 1173.8C68.6605 1175.27 68.3489 1176.74 68.2811 1178.2C68.0507 1182.87 70.0903 1174.4 67.9897 1181.23C60.0212 1207.14 98.3801 1223.2 111.681 1199.63Z" fill="#E5F8FF"/>
<path d="M615.816 1236.67C616.175 1235.49 616.487 1234.28 616.92 1233.13C618.066 1230.11 614.813 1237.41 616.724 1234.59C618.337 1232.21 619.536 1229.63 620.823 1227.06C625.092 1218.59 629.144 1210.22 632.776 1201.42C639.776 1184.46 646.653 1167.49 651.661 1149.81C662.204 1112.61 671.874 1075.53 677.586 1037.24C679.91 1021.67 682.458 1005.78 681.923 989.979C681.286 971.189 678.257 952.352 675.004 933.874C667.435 890.86 656.14 848.442 643.354 806.716C628.182 757.217 610.748 708.315 589.41 661.12C580.201 640.758 549.093 634.28 531.15 645.846C510.049 659.453 506.112 682.274 515.877 704.107C516.71 705.963 517.537 707.827 518.357 709.69C518.547 710.124 522.605 719.603 519.956 713.336C517.645 707.867 520.403 714.447 520.945 715.775C521.995 718.37 523.052 720.959 524.096 723.561C528.033 733.433 531.794 743.373 535.432 753.361C543.035 774.225 550.075 795.298 556.675 816.5C569.61 858.024 581.387 900.123 590.088 942.751C591.809 951.18 593.387 959.636 594.749 968.133C595.075 970.166 594.959 973.161 595.8 974.998C595.522 974.388 594.553 964.244 595.325 971.508C595.752 975.506 596.233 979.483 596.538 983.495C597.467 995.759 596.396 1007.53 595.176 1019.73C594.627 1025.22 596.667 1010.4 595.664 1016.02C595.271 1018.22 595.007 1020.46 594.661 1022.67C594.072 1026.43 593.448 1030.18 592.805 1033.92C591.226 1043.08 589.498 1052.22 587.689 1061.34C583.786 1081.04 580.913 1100.96 577.41 1120.74C573.405 1143.33 570.593 1165.92 568.919 1188.79C568.357 1196.5 568.37 1204.1 568.492 1211.83C568.56 1216.07 568.791 1220.02 569.319 1224.23C569.489 1225.58 569.543 1234.06 569.333 1225.91C569.366 1227.34 569.007 1228.89 568.858 1230.31C566.012 1258.02 608.152 1261.41 615.816 1236.67Z" fill="#E5F8FF"/>
<path d="M549.912 639.117L428.405 607.615H322.368L200.86 639.117C193.651 641.448 188.941 648.38 189.443 655.942L199.607 1173.13C199.607 1173.13 292.763 1187.57 375.383 1187.57C458.003 1187.57 544.431 1173.13 544.431 1173.13L561.323 655.942C561.825 648.387 557.122 641.448 549.912 639.117Z" fill="#E5F8FF"/>
<path d="M321.697 590.811C321.697 590.811 273.614 606.992 273.614 620.259C292.763 660.183 347.222 693.772 347.222 693.772L382.599 633.52L321.697 590.811Z" fill="white"/>
<path d="M429.07 590.811C429.07 590.811 477.152 606.992 477.152 620.259C458.003 660.183 403.544 693.772 403.544 693.772L368.167 633.52L429.07 590.811Z" fill="white"/>
<path d="M430.072 621.018L425.288 623.105C393.468 636.989 357.297 636.989 325.477 623.105L320.693 621.018V548.102H430.065L430.072 621.018Z" fill="#ED9F42"/>
<path d="M262.976 384.029C262.976 417.238 236.055 444.159 202.846 444.159C169.644 444.159 142.716 417.238 142.716 384.029C142.716 350.819 169.637 323.898 202.846 323.898C236.055 323.905 262.976 350.826 262.976 384.029Z" fill="#ED9F42"/>
<path d="M608.051 384.029C608.051 417.238 581.129 444.159 547.92 444.159C514.711 444.159 487.79 417.238 487.79 384.029C487.79 350.819 514.711 323.898 547.92 323.898C581.129 323.905 608.051 350.826 608.051 384.029Z" fill="#ED9F42"/>
<path d="M547.04 444.362C547.04 547.479 470.186 564.961 375.383 564.961C280.58 564.961 203.727 547.479 203.727 444.362C203.727 341.245 160.713 176.717 375.383 176.717C590.06 176.717 547.04 341.238 547.04 444.362Z" fill="#EDAC5F"/>
<path d="M251.044 308.07C258.586 312.583 268.492 309.472 276.678 308.402C290.297 306.62 302.406 307.555 315.484 311.641C325.587 314.798 332.037 299.613 322.7 294.518C303.524 284.056 266.839 286.82 250.238 301.843C248.32 303.584 248.943 306.816 251.044 308.07Z" fill="#322A2D"/>
<path d="M500.522 301.843C483.921 286.82 447.215 284.069 428.06 294.518C418.817 299.559 425.072 314.832 435.276 311.641C448.361 307.555 460.422 306.599 474.082 308.402C482.295 309.486 492.174 312.583 499.716 308.07C501.817 306.816 502.447 303.584 500.522 301.843Z" fill="#322A2D"/>
<path d="M292.763 376.059C298.685 376.059 304.892 373.484 309.08 369.303C313.078 365.298 316.093 358.739 315.835 352.986C315.571 347.017 313.606 340.83 309.08 336.67C304.567 332.523 299.017 329.914 292.763 329.914C286.848 329.914 280.634 332.489 276.447 336.67C272.442 340.668 269.427 347.234 269.691 352.986C269.962 358.956 271.92 365.143 276.447 369.303C280.966 373.45 286.516 376.059 292.763 376.059Z" fill="#322A2D"/>
<path d="M458.003 376.059C463.918 376.059 470.132 373.484 474.319 369.303C478.324 365.298 481.332 358.739 481.075 352.986C480.811 347.017 478.846 340.83 474.319 336.67C469.806 332.523 464.257 329.914 458.003 329.914C452.08 329.914 445.867 332.489 441.686 336.67C437.681 340.668 434.666 347.234 434.924 352.986C435.195 358.956 437.153 365.143 441.686 369.303C446.206 373.45 451.755 376.059 458.003 376.059Z" fill="#322A2D"/>
<path d="M360.008 355.799C357.42 367.393 355.007 375.856 348.34 385.498C340.588 396.706 333.494 412.04 334.083 425.971C334.923 445.723 358.992 446.814 373.899 444.721C378.961 444.009 378.764 435.593 373.899 434.699C367.76 433.567 361.438 435.282 355.217 434.706C345.358 433.791 342.872 428.79 344.491 418.843C345.636 411.823 348.34 405.033 351.423 398.684C358.443 384.218 367.516 374.006 366.364 356.66C366.14 353.204 360.848 352.038 360.008 355.799Z" fill="#DF7723"/>
<path d="M371.385 669.839C364.392 709.39 365.185 751.72 364.243 791.8C363.234 834.848 363.132 877.916 363.363 920.971C363.817 1006.28 365.639 1091.57 364.921 1176.89C364.867 1183.2 374.658 1183.21 374.733 1176.89C375.756 1092.46 374.001 1008.04 373.303 923.614C372.957 881.433 372.917 839.246 373.642 797.072C374.367 755.183 378.886 712.433 377.26 670.632C377.131 667.44 372.002 666.37 371.385 669.839Z" fill="#C2E2EE"/>
<path d="M391.496 736.007C397.364 736.007 402.121 731.25 402.121 725.383C402.121 719.515 397.364 714.758 391.496 714.758C385.628 714.758 380.871 719.515 380.871 725.383C380.871 731.25 385.628 736.007 391.496 736.007Z" fill="#C2E2EE"/>
<path d="M201.145 746.063C198.726 762.8 199.065 780.296 198.482 797.175C197.689 820.261 197.066 843.34 196.686 866.432C196.002 907.637 195.182 948.917 195.9 990.128C195.989 995.129 203.774 995.149 203.679 990.128C202.968 949.52 203.063 908.898 203.347 868.282C203.632 828.012 206.708 786.652 204.127 746.463C204.038 744.878 201.409 744.261 201.145 746.063Z" fill="#C2E2EE"/>
<path d="M548.32 714.596C545.007 747.832 543.631 781.624 543.299 815.03C543.245 820.342 551.363 820.315 551.532 815.03C552.609 781.678 553.897 747.914 551.986 714.596C551.85 712.211 548.55 712.272 548.32 714.596Z" fill="#C2E2EE"/>
<path d="M315.883 474.603C338.786 496.367 387.262 498.705 411.838 478.906C417.733 474.156 410.029 464.208 403.727 468.396C380.987 483.527 343.407 482.341 319.949 469.331C316.69 467.508 313.051 471.906 315.883 474.603Z" fill="#DF7723"/>
<path d="M560.232 297.932C560.185 287.606 558.945 277.137 557.406 266.946C557.088 264.832 556.769 262.711 556.356 260.61C553.503 246.109 546.253 232.835 537.892 220.652C516.141 188.947 482.05 155.345 444.145 145.161C416.039 137.612 385.574 138.805 358.253 148.908C350.352 151.828 342.675 155.474 334.49 157.466C327.761 159.106 320.815 159.6 313.951 160.522C257.514 168.111 209.642 204.85 189.686 258.455C188.243 262.338 186.949 266.275 185.661 270.205C184.57 273.545 183.473 276.893 182.836 280.349C179.8 296.807 181.853 316.058 183.663 332.537C184.808 342.938 186.529 360.38 198.224 364.757C209.032 368.802 214.913 359.675 216.452 350.412C217.753 342.606 217.346 334.516 217.651 326.635C218.2 312.657 220.897 300.5 226.71 287.741C231.799 276.568 238.358 265.841 246.435 256.524C264.507 258.34 284.855 254.573 300.725 250.351C323.973 244.171 352.744 239.083 369.521 220.395C369.942 220.381 370.362 220.374 370.782 220.361C394.349 235.681 422.449 235.153 449.715 237.883C452.575 238.168 454.038 234.644 452.832 232.456C452.358 231.656 451.918 230.836 451.484 230.016C462.969 239.259 475.613 246.536 490.066 251.036C494.627 252.458 499.248 253.658 503.896 254.756C507.406 258.428 510.72 262.467 513.796 266.939C525.139 283.432 525.661 305.305 527.118 324.609C527.89 334.868 526.474 354.614 534.653 362.657C542.262 370.137 551.057 362.067 554.33 354.573C561.763 337.585 560.32 316.011 560.232 297.932Z" fill="#322A2D"/>
<path d="M371.967 134.271C355.888 150.255 336.217 196.088 364.73 210.555C370.266 213.367 377.171 205.852 371.784 201.414C353.503 186.365 363.802 153.969 376.9 139.197C379.854 135.863 375.179 131.072 371.967 134.271Z" fill="#21171B"/>
<path d="M391.699 144.041C385.167 179.236 414.792 205.872 443.76 220.095C450.583 223.443 455.618 214.451 449.634 210.04C426.203 192.788 396.531 177.935 395.426 144.543C395.358 142.51 392.106 141.853 391.699 144.041Z" fill="#21171B"/>
<path d="M427.605 170.99C437.505 185.897 455.624 189.848 470.362 198.399C490.053 209.823 511.255 225.93 514.562 249.869C515.368 255.731 525.017 254.287 524.834 248.48C524.19 228.24 509.805 212.75 494.227 201.36C485.567 195.031 475.966 190.044 465.985 186.168C453.517 181.323 439.999 179.026 430.682 168.618C429.211 166.972 426.372 169.133 427.605 170.99Z" fill="#21171B"/>
<path d="M544.478 223.551C557.759 250.56 561.77 278.559 558.423 308.305C557.664 315.061 568.099 314.905 568.946 308.305C572.836 277.867 565.396 246.684 549.533 220.597C547.554 217.351 542.831 220.197 544.478 223.551Z" fill="#21171B"/>
<path d="M330.139 151.664C289.761 164.037 254.587 194.916 239.205 234.65C236.244 242.307 248.339 245.37 251.388 238.011C266.797 200.858 293.894 172.365 331.806 157.729C335.499 156.299 334.083 150.452 330.139 151.664Z" fill="#21171B"/>
<path d="M206.044 250.948C192.919 268.274 184.408 288.981 184.056 310.902C183.934 318.511 195.893 318.525 195.88 310.902C195.846 290.174 199.817 271.574 211.146 253.936C213.26 250.65 208.28 248 206.044 250.948Z" fill="#21171B"/>
<path d="M248.381 398.318C248.381 405.46 256.675 411.254 266.907 411.254C277.138 411.254 285.432 405.46 285.432 398.318C285.432 391.176 277.138 385.383 266.907 385.383C256.675 385.39 248.381 391.176 248.381 398.318Z" fill="#ED9F42"/>
<path d="M463.262 398.318C463.262 405.46 471.556 411.254 481.787 411.254C492.019 411.254 500.313 405.46 500.313 398.318C500.313 391.176 492.019 385.383 481.787 385.383C471.556 385.39 463.262 391.176 463.262 398.318Z" fill="#ED9F42"/>
</g>
</svg>
