<svg width="766" height="765" viewBox="0 0 766 765" fill="none" xmlns="http://www.w3.org/2000/svg">
<path d="M383 764.835C594.049 764.835 765.139 593.746 765.139 382.696C765.139 171.646 594.049 0.556641 383 0.556641C171.95 0.556641 0.860352 171.646 0.860352 382.696C0.860352 593.746 171.95 764.835 383 764.835Z" fill="#FFCB24"/>
<mask id="mask0_1098_3210" style="mask-type:luminance" maskUnits="userSpaceOnUse" x="0" y="0" width="766" height="765">
<path d="M383 764.835C594.049 764.835 765.139 593.746 765.139 382.696C765.139 171.646 594.049 0.556641 383 0.556641C171.95 0.556641 0.860352 171.646 0.860352 382.696C0.860352 593.746 171.95 764.835 383 764.835Z" fill="white"/>
</mask>
<g mask="url(#mask0_1098_3210)">
<path d="M629.355 1059.72C624.557 1045.84 618.378 1032.63 614.502 1018.4C609.935 1001.6 605.273 984.851 600.645 968.067C592.405 938.212 584.321 908.336 576.603 878.339C575.336 873.426 574.103 868.493 573.08 863.527C572.728 861.819 572.491 860.064 572.091 858.37C572.484 860.023 572.721 863.865 572.07 858.092C570.749 846.356 569.38 834.627 567.93 822.911C563.79 789.451 559.325 755.971 554.182 722.66C548.795 687.757 542.5 652.061 526.258 620.329C520.193 608.478 503.565 605.029 492.527 611.486C480.201 618.696 477.972 633.136 483.684 645.217C485.243 648.524 485.216 648.612 485.405 649.114C486.503 651.953 487.506 654.826 488.461 657.712C490.894 665.078 493.028 672.572 495.048 680.06C499.384 696.119 502.759 712.435 505.733 728.799C511.412 760.003 514.651 791.335 517.381 822.918C519.258 844.642 520.546 866.434 525.458 887.73C532.2 916.928 542.161 945.984 553.491 973.677C561.303 992.772 569.265 1011.62 579.3 1029.67C587.567 1044.52 594.865 1060.25 605.408 1073.65C614.305 1084.93 633.847 1072.72 629.355 1059.72Z" fill="#FFD9AB"/>
<path d="M600.211 342.392C598.144 295.508 596.328 246.552 577.308 202.88C557.983 158.504 516.758 124.862 473.351 105.164C451.79 95.3792 428.697 89.3147 405.001 88.1899C393.536 87.6478 382.078 88.3051 370.728 89.972C357.312 91.9438 345.522 90.2363 332.098 90.5412C287.153 91.5711 237.472 112.583 207.278 146.335C150.495 209.819 143.021 310.355 154.303 390.854C158.335 419.604 167.062 446.864 165.646 476.238C164.304 504.019 157.82 528.277 142.743 551.431C111.079 600.083 67.6854 641.599 51.2603 698.755C46.3884 717.741 45.3923 737.886 47.127 757.367C48.3873 771.489 50.3523 790.502 61.0855 801.079C77.951 817.687 92.2889 797.244 102.419 776.726C97.913 800.625 95.7379 826.401 119.8 837.609C129.909 842.318 141.645 841.098 149.749 833.272C158.856 824.477 165.707 811.948 172.259 800.083C172.801 823.84 178.215 853.736 199.506 863.1C208.206 866.928 217.387 864.354 223.472 857.185C229.245 850.375 232.003 840.441 235.493 832.357C236.611 829.755 237.736 827.16 238.861 824.558C239.423 843.673 244.803 864.266 265.328 866.142C280.851 867.565 292.71 852.211 298.496 836.857C306.472 855.091 324.943 870.628 345.108 863.859C370.464 855.348 388.522 823.738 402.928 803.207C413.607 787.995 423.927 772.464 435.507 757.909C444.031 747.19 453.768 739.452 463.607 730.257C471.623 722.762 476.258 711.148 480.601 701.337C486.957 686.992 492.459 672.281 498.022 657.611C503.511 643.131 508.423 627.871 515.952 614.279C517.496 611.494 517.849 610.633 519.17 610.789C522.125 611.134 527.2 620.655 528.528 622.613C535.886 633.441 542.331 644.899 549.052 656.127C550.259 658.153 553.64 658.966 555.306 656.933C628.223 568.12 604.839 447.447 600.211 342.392Z" fill="#F63C2F"/>
<path d="M215.403 469.896C214.664 526.103 188.495 576.523 156.539 621.333C127.511 662.036 85.4659 705.409 95.3656 759.922C96.4905 766.102 107.048 764.76 106.431 758.425C100.644 698.837 147.25 656.161 176.644 609.624C203.057 567.816 223.086 520.201 219.319 469.889C219.143 467.402 215.436 467.341 215.403 469.896Z" fill="#E62113"/>
<path d="M244.153 530.845C249.818 555.245 248.47 582.268 240.562 606.031C233.23 628.067 219.401 646.572 207.441 666.202C185.507 702.189 170.478 744.553 167.998 786.808C167.51 795.068 179.564 794.594 180.574 786.808C183.691 762.753 187.994 739.403 196.335 716.561C204.778 693.428 217.151 672.944 229.68 651.911C252.522 613.552 259.88 573.134 248.056 529.774C247.372 527.253 243.571 528.31 244.153 530.845Z" fill="#E62113"/>
<path d="M567.652 450.556C566.27 472.118 558.939 494.987 553.375 515.843C547.135 539.241 539.363 562.462 529.903 584.762C508.674 634.789 469.495 678.427 426.454 710.897C420.532 715.363 426.156 725.506 432.39 721.054C518.459 659.657 568.025 555.408 568.398 450.55C568.398 450.075 567.68 450.082 567.652 450.556Z" fill="#E62113"/>
<path d="M495.447 554.454C486.781 570.608 481.882 588.456 472.68 604.508C462.895 621.577 450.726 636.931 436.754 650.754C432.363 655.097 439.153 661.894 443.53 657.537C458.017 643.111 470.329 626.821 479.822 608.689C488.245 592.596 496.952 573.155 496.491 554.745C496.477 554.196 495.719 553.945 495.447 554.454Z" fill="#E62113"/>
<path d="M270.247 606.663L349.851 591.553H436.469L516.066 606.663C521.955 608.567 525.804 614.232 525.39 620.405L518.906 708.242C528.846 718.786 539.647 733.991 539.423 750.145C539.105 773.61 526.772 794.928 512.414 806.779L507.732 899.759C507.732 899.759 533.752 1003.78 533.264 1036.42C533.054 1050.63 447.974 1055.13 416.398 1055.13C381.482 1055.13 274.685 1045.33 274.685 1026.37C274.685 1003.34 313.098 899.752 313.098 899.752L260.916 620.391C260.51 614.225 264.352 608.567 270.247 606.663Z" fill="#3DCCB7"/>
<path d="M409.555 673.264C348.707 673.264 340.467 637.493 321.379 596.959L349.845 591.559H436.463L446.322 593.429C450.184 625.249 470.403 673.264 409.555 673.264Z" fill="#FFCB8C"/>
<path d="M426.942 606.737C426.942 608.377 426.299 609.949 425.126 611.094C420.783 615.336 408.945 625.249 393.15 625.249C377.355 625.249 365.525 615.343 361.174 611.094C360.002 609.949 359.358 608.37 359.358 606.737V522.918H426.929V606.737H426.942Z" fill="#FFCB8C"/>
<path d="M619.395 395.719C612.591 425.5 581.605 445.177 557.414 445.177C529.782 445.177 530.399 426.814 530.399 396.892C530.399 366.969 543.863 342.873 561.656 336.788C601.147 323.291 627.478 360.328 619.395 395.719Z" fill="#FFCB8C"/>
<path d="M166.907 395.719C173.71 425.5 204.696 445.177 228.887 445.177C256.519 445.177 255.896 426.814 255.896 396.892C255.896 366.969 242.432 342.873 224.638 336.788C185.161 323.291 158.83 360.328 166.907 395.719Z" fill="#FFCB8C"/>
<path d="M557.949 450.238C532.532 561.432 437.953 571.339 393.163 571.339C348.374 571.339 250.305 551.892 228.378 450.238C206.552 349.018 187.085 181.488 393.163 181.488C599.242 181.488 581.021 349.296 557.949 450.238Z" fill="#FFD9AB"/>
<path d="M321.616 404.249C327.579 404.249 333.84 401.654 338.055 397.439C342.087 393.407 345.122 386.794 344.858 381C344.594 374.99 342.615 368.756 338.055 364.562C333.508 360.388 327.911 357.752 321.616 357.752C315.653 357.752 309.392 360.34 305.178 364.562C301.146 368.594 298.11 375.207 298.368 381C298.639 387.011 300.617 393.245 305.178 397.439C309.731 401.613 315.321 404.249 321.616 404.249Z" fill="#322A2D"/>
<path d="M488.103 404.249C494.065 404.249 500.327 401.654 504.541 397.439C508.573 393.407 511.609 386.794 511.344 381C511.073 374.99 509.102 368.756 504.541 364.562C499.988 360.388 494.397 357.752 488.103 357.752C482.14 357.752 475.879 360.34 471.664 364.562C467.632 368.594 464.597 375.207 464.854 381C465.125 387.011 467.104 393.245 471.664 397.439C476.217 401.613 481.808 404.249 488.103 404.249Z" fill="#322A2D"/>
<path d="M334.348 344.898C332.349 349.079 330.581 353.7 327.68 357.352C324.814 360.957 319.292 363.356 318.309 368.106C317.794 370.593 319.014 373.161 321.582 373.872C328.216 375.708 333.853 368.594 336.733 363.505C339.877 357.955 341.571 351.837 339.66 345.596C338.976 343.38 335.48 342.526 334.348 344.898Z" fill="#322A2D"/>
<path d="M500.834 344.898C498.836 349.079 497.067 353.7 494.167 357.352C491.301 360.957 485.778 363.356 484.796 368.106C484.281 370.593 485.5 373.161 488.068 373.872C494.702 375.708 500.34 368.594 503.22 363.505C506.364 357.955 508.058 351.837 506.147 345.596C505.462 343.38 501.966 342.526 500.834 344.898Z" fill="#322A2D"/>
<path d="M416.412 378.867C415.471 386.497 414.19 398.612 418.601 405.51C420.105 407.861 423.893 409.135 425.025 411.351C427.044 415.295 418.974 421.285 416.155 424.463C411.913 429.24 418.479 435.907 423.195 431.503C428 427.024 439.654 417.246 436.063 409.427C433.325 403.471 426.753 404.182 424.395 396.755C422.599 391.104 423.832 383.969 422.524 378.033C421.705 374.32 416.812 375.655 416.412 378.867Z" fill="#F1A567"/>
<path d="M288.759 463.363C300.551 463.363 310.111 453.803 310.111 442.011C310.111 430.219 300.551 420.66 288.759 420.66C276.967 420.66 267.408 430.219 267.408 442.011C267.408 453.803 276.967 463.363 288.759 463.363Z" fill="#FFCB8C"/>
<path d="M511.364 466.019C523.156 466.019 532.715 456.459 532.715 444.668C532.715 432.876 523.156 423.316 511.364 423.316C499.572 423.316 490.013 432.876 490.013 444.668C490.013 456.459 499.572 466.019 511.364 466.019Z" fill="#FFCB8C"/>
<path d="M204.344 1142.52C212.475 1127.13 214.074 1106.03 216.507 1088.94C219.502 1067.91 221.094 1046.75 222.693 1025.58C225.98 982.052 230.303 938.719 237.059 895.576C243.658 853.45 252.359 811.751 262.475 770.336C267.591 749.384 273.121 728.528 279.043 707.786C284.816 687.547 289.817 665.938 298.517 646.708C304.541 633.393 301.37 618.059 286.788 611.913C273.812 606.445 257.082 613.336 253.687 627.809C243.631 670.667 227.24 712.299 215.945 754.927C204.615 797.704 195.359 841.03 188.129 884.687C180.669 929.741 174.862 975.174 171.318 1020.71C169.719 1041.28 168.906 1062.14 170.572 1082.73C172.077 1101.38 173.649 1126.13 183.271 1142.53C187.756 1150.16 200.007 1150.73 204.344 1142.52Z" fill="#FFD9AB"/>
<path d="M293.137 337.255C307.536 323.899 324.91 315.917 344.784 321.155C351.729 322.985 354.697 312.231 347.751 310.395C325.933 304.642 298.944 312.096 288.353 333.555C286.828 336.625 290.521 339.681 293.137 337.255Z" fill="#F63C2F"/>
<path d="M526.089 333.556C515.491 312.089 488.516 304.643 466.69 310.395C459.752 312.225 462.699 322.985 469.658 321.156C489.526 315.918 506.899 323.9 521.305 337.256C523.893 339.661 527.613 336.652 526.089 333.556Z" fill="#F63C2F"/>
<path d="M373.364 450.557C382.81 461.378 396.924 467.971 411.283 468.256C425.641 468.547 440.013 462.523 449.886 452.095L373.364 450.557Z" fill="white"/>
<path d="M370.552 453.375C393.217 477.362 429.137 477.931 452.704 454.913C455.225 452.453 453.28 448.178 449.885 448.11C424.38 447.595 398.869 447.087 373.364 446.572C368.234 446.47 368.234 454.439 373.364 454.54C398.869 455.055 424.38 455.563 449.885 456.078C448.943 453.815 448.008 451.545 447.066 449.275C426.501 469.359 395.874 468.587 376.183 447.737C372.652 444.003 367.028 449.648 370.552 453.375Z" fill="#F1A567"/>
<path d="M581.34 370.425C581.286 316.867 580.209 259.61 546.044 215.302C521.407 183.353 484.044 162.422 444.357 156.256C358.491 142.914 265.524 169.747 219.488 248.023C207.156 268.988 203.239 288.76 204.994 312.619C206.553 333.739 212.848 359.163 206.837 379.952C205.95 383.014 209.819 386.633 212.692 384.451C260.063 348.423 290.216 297.244 322.273 248.104C316.067 264.062 308.633 279.484 299.94 294.391C297.961 297.786 301.952 301.946 305.388 299.839C342.886 276.855 374.835 246.6 399.811 210.572C401.878 224.775 403.348 239.018 404.175 253.369C404.419 257.57 409.243 258.458 411.601 255.382C421.813 242.04 429.47 227.593 434.816 211.927C448.11 241.362 468.154 266.488 494.113 286.206C496.39 287.94 500.469 285.623 500.109 282.764C498.402 269.239 498.07 255.849 499.215 242.426C519.408 288.618 544.282 332.438 573.873 373.345C575.255 375.751 579.111 375.839 580.669 373.609C581.428 372.756 581.753 371.631 581.34 370.425Z" fill="#F63C2F"/>
<path d="M433.549 749.297C425.303 787.168 393.733 811.785 354.744 799.182C346.877 796.641 343.482 809.054 351.336 811.548C391.531 824.307 440.285 794.676 436.544 749.703C436.415 748.097 433.942 747.501 433.549 749.297Z" fill="#70BEE6"/>
<path d="M369.19 156.452C346.3 176.191 329.747 203.532 318.81 231.49C316.405 237.629 326.372 240.366 328.717 234.22C339.355 206.296 354.784 182.858 372.761 159.203C374.407 157.035 371.013 154.873 369.19 156.452Z" fill="#E62113"/>
<path d="M398.828 163.608C398.591 172.756 397.425 181.89 395.569 190.848C394.424 196.37 403.11 198.552 403.91 193.152C405.435 182.873 405.13 173.203 403.043 163.039C402.548 160.6 398.889 161.25 398.828 163.608Z" fill="#E62113"/>
<path d="M423.439 167.165C424.056 180.249 426.624 193.13 432.248 205.036C434.85 210.531 442.819 205.74 440.366 200.293C435.406 189.275 430.886 178.318 427.905 166.562C427.281 164.109 423.317 164.57 423.439 167.165Z" fill="#E62113"/>
<path d="M447.995 164.584C466.419 183.719 479.707 205.883 491.395 229.559C494.492 235.833 503.524 230.345 500.692 224.124C489.484 199.473 471.853 178.712 451.735 160.843C449.208 158.594 445.617 162.11 447.995 164.584Z" fill="#E62113"/>
<path d="M262.19 211.358C226.413 238.266 214.86 279.823 204.723 321.529C202.948 328.84 214.426 331.93 215.951 324.626C224.109 285.42 233.541 242.69 265.057 215.078C267.049 213.323 264.352 209.725 262.19 211.358Z" fill="#E62113"/>
<path d="M542.202 234.024C554.853 258.628 563.058 284.844 566.169 312.348C566.853 318.379 576.414 318.42 575.696 312.348C572.226 283.164 562.93 255.972 547.155 231.131C545.163 228.014 540.515 230.752 542.202 234.024Z" fill="#E62113"/>
</g>
</svg>
