<svg width="765" height="765" viewBox="0 0 765 765" fill="none" xmlns="http://www.w3.org/2000/svg">
<path d="M382.776 764.835C593.826 764.835 764.915 593.746 764.915 382.696C764.915 171.646 593.826 0.556641 382.776 0.556641C171.726 0.556641 0.636719 171.646 0.636719 382.696C0.636719 593.746 171.726 764.835 382.776 764.835Z" fill="#48AAEB"/>
<mask id="mask0_1098_3136" style="mask-type:luminance" maskUnits="userSpaceOnUse" x="0" y="0" width="765" height="765">
<path d="M382.776 764.835C593.826 764.835 764.915 593.746 764.915 382.696C764.915 171.646 593.826 0.556641 382.776 0.556641C171.726 0.556641 0.636719 171.646 0.636719 382.696C0.636719 593.746 171.726 764.835 382.776 764.835Z" fill="white"/>
</mask>
<g mask="url(#mask0_1098_3136)">
<path d="M633.176 211.032C629.286 205.144 622.937 202.935 616.33 202.027C621.819 196.81 625.824 190.311 622.944 182.302C619.048 171.461 610.158 174.103 601.796 176.881C606.559 167.896 608.992 157.448 600.075 149.893C589.769 141.158 576.447 145.976 566.534 152.616C549.526 134.098 528.473 119.258 505.407 108.681C461.33 88.4748 411.336 82.3561 363.301 86.5572C313.43 90.921 264.039 105.442 227.097 140.623C161.153 206.587 155.955 316.392 186.054 400.435C201.558 443.72 232.131 475.967 274.61 493.612C322.774 513.615 376.311 512.361 426.833 503.437C474.455 495.021 526.244 481.842 561.059 445.977C591.666 414.448 604.75 371.048 609.548 328.311C612.671 300.503 613.396 271.42 608.924 243.415C618.058 239.769 626.61 234.498 630.641 230.466C636.15 224.957 637.627 217.781 633.176 211.032Z" fill="#964A35"/>
<path d="M220.958 619.226L337.099 589.113H438.447L554.588 619.226C561.479 621.455 565.978 628.082 565.504 635.312L547.812 1118.13C547.812 1118.13 466.744 1131.93 387.776 1131.93C308.809 1131.93 215.409 1118.13 215.409 1118.13L210.042 635.312C209.568 628.082 214.067 621.455 220.958 619.226Z" fill="#F2FEFF"/>
<path d="M341.964 698.098C341.828 697.529 341.524 696.967 340.975 696.458C312.373 670.147 286.997 639.1 280.58 599.697C280.187 597.285 277.314 596.824 275.512 597.637C257.162 605.89 237.654 611.88 218.2 616.956C217.109 617.24 216.012 618.223 215.788 619.368C200.447 698.844 211.492 781.49 209.968 861.813C209.046 910.56 205.956 959.252 204.255 1007.97C203.429 1031.63 202.86 1055.3 202.92 1078.96C202.948 1090.2 203.117 1101.43 203.469 1112.67C203.801 1123.14 202.595 1135.38 204.188 1145.61C206.281 1159.09 231.698 1160.07 241.74 1162.08C265.382 1166.81 289.369 1169.4 313.369 1171.5C315.219 1171.66 316.839 1169.78 316.818 1168.05C316.134 1097.35 321.358 1026.45 325.824 955.939C330.336 884.75 335.73 813.629 340.263 742.44C340.954 731.612 341.673 720.784 342.079 709.943C342.194 706.988 343.272 701.351 341.964 698.098Z" fill="#DEA868"/>
<path d="M441.747 586.023C441.747 586.023 487.708 596.065 487.708 604.292C469.4 629.065 417.353 649.908 417.353 649.908L383.534 612.524L441.747 586.023Z" fill="white"/>
<path d="M339.111 586.023C339.111 586.023 293.149 596.065 293.149 604.292C311.458 629.065 363.505 649.908 363.505 649.908L397.324 612.524L339.111 586.023Z" fill="white"/>
<path d="M338.156 601.927L342.723 603.919C373.141 617.193 407.712 617.193 438.129 603.919L442.696 601.927V532.229H338.149L338.156 601.927Z" fill="#FFD9AB"/>
<path d="M497.873 375.398C497.873 407.143 523.608 432.872 555.347 432.872C587.086 432.872 612.821 407.143 612.821 375.398C612.821 343.659 587.086 317.924 555.347 317.924C523.608 317.931 497.873 343.659 497.873 375.398Z" fill="#FFD097"/>
<path d="M168.044 375.398C168.044 407.143 193.779 432.872 225.518 432.872C257.264 432.872 282.992 407.143 282.992 375.398C282.992 343.659 257.257 317.924 225.518 317.924C193.772 317.931 168.044 343.659 168.044 375.398Z" fill="#FFD097"/>
<path d="M226.352 433.069C226.352 531.633 299.811 548.342 390.426 548.342C481.041 548.342 554.5 531.633 554.5 433.069C554.5 334.505 595.617 177.248 390.426 177.248C185.235 177.248 226.352 334.499 226.352 433.069Z" fill="#FFD9AB"/>
<path d="M461.642 366.847C475.926 366.847 494.696 350.009 491.795 335.928C489.559 325.053 472.924 322.43 462.035 324.416C434.24 329.484 433.027 366.847 461.642 366.847Z" fill="#322A2D"/>
<path d="M319.217 366.847C304.934 366.847 286.164 350.009 289.064 335.928C291.3 325.053 307.935 322.43 318.824 324.416C346.619 329.484 347.832 366.847 319.217 366.847Z" fill="#322A2D"/>
<path d="M394.349 349.479C394.959 361.012 396.362 372.396 398.469 383.752C399.323 388.353 402.691 394.662 402.901 399.066C403.51 411.737 393.706 412.3 386.13 409.521C381.875 407.963 377.89 414.481 381.57 417.361C389.986 423.941 406.912 420.221 411.106 409.732C413.851 402.861 409.209 395.969 407.102 389.681C402.718 376.61 401.6 362.34 397.629 349.025C397.114 347.284 394.248 347.535 394.349 349.479Z" fill="#F19687"/>
<path d="M510.992 297.209C493.083 284.741 471.04 279.985 449.499 284.816C436.205 287.797 439.139 308.864 452.711 308.532C471.216 308.085 489.627 306.953 508.166 307.658C514.115 307.882 515.26 300.177 510.992 297.209Z" fill="#964A35"/>
<path d="M272.95 307.658C291.483 306.953 309.907 308.085 328.405 308.532C341.842 308.857 345.04 287.824 331.617 284.816C310.042 279.978 288.04 284.735 270.125 297.216C265.856 300.177 266.987 307.881 272.95 307.658Z" fill="#964A35"/>
<path d="M574.828 287.818C575.072 287.357 575.207 286.849 575.14 286.307C575.092 284.606 575.038 282.912 574.991 281.212C574.957 280.114 574.516 279.287 573.866 278.731C573.405 275.499 572.843 272.274 572.043 269.082C567.158 249.479 557.874 231.089 545.373 215.247C515.714 177.667 471.989 162.354 425.417 159.44C379.645 156.574 327.517 156.614 284.788 175.343C238.04 195.834 214.772 243.645 213.748 293.097C213.708 301.397 212.353 370.539 236.292 356.54C243.942 352.068 243.793 337.574 244.491 330.066C246.158 312.076 245.962 293.185 251.85 275.906C259.954 252.122 285.364 232.824 308.761 226.062C336.455 218.052 366.019 218.29 394.573 218.954C421.44 219.577 449.655 218.269 475.383 227.295C501.837 236.578 520.728 257.746 532.254 282.743C541.138 302.007 541.002 321.17 541.531 341.965C541.761 351.153 540.392 369.232 549.445 375.398C571.501 390.427 574.001 331.381 574.408 322.83C574.943 311.216 575.607 299.439 574.828 287.818Z" fill="#964A35"/>
<path d="M439.694 445.564C425.959 448.972 413.261 453.58 398.91 453.878C383.765 454.19 368.933 451.228 355.049 445.218C350.414 443.212 346.375 450.043 351.051 452.062C378.06 463.717 415.985 467.443 441.26 449.263C443.048 447.962 442.032 444.981 439.694 445.564Z" fill="#F19687"/>
<path d="M301.992 1144.79C296.937 1132.83 294.112 1120.15 287.424 1108.54C280.587 1096.67 272.219 1085.43 264.033 1074.46C249.038 1054.37 233.704 1034.47 219.379 1013.89C212.461 1003.95 205.814 993.796 199.79 983.286C197.181 978.74 194.694 974.125 192.35 969.436C191.015 966.773 189.728 964.097 188.501 961.38C185.249 954.156 191.598 970.676 187.085 957.646C183.724 947.936 180.641 938.03 179.164 927.832C180.119 934.418 179.292 928.489 179.408 926.775C179.564 924.444 179.875 921.855 179.814 919.538C179.787 918.596 177.626 931.938 179.387 923.027C179.936 920.243 180.424 917.451 181.027 914.673C182.403 908.317 184.063 902.029 185.811 895.768C189.856 881.294 194.532 867.004 199.478 852.815C210.591 820.913 223.038 789.472 235.804 758.201C247.1 730.548 258.938 703.112 270.132 675.419C278.94 653.62 260.564 625.236 238.826 620.283C212.861 614.367 193.122 628.244 183.69 651.588C160.421 709.15 135.289 765.933 114.595 824.518C104.079 854.292 94.2943 884.425 90.8453 915.94C86.136 958.927 107.806 1004.37 130.288 1039.64C145.541 1063.55 163.206 1085.88 180.322 1108.47C191.455 1123.16 202.622 1137.73 214.467 1151.86C225.471 1164.98 238.765 1172.91 251.843 1183.5C280.919 1207.03 316.222 1178.48 301.992 1144.79Z" fill="#DEA868"/>
<path d="M566.602 1027.73C565.254 978.603 562.414 929.531 560.788 880.412C559.379 837.778 560.917 795.19 561.628 752.556C562.374 708.207 562.889 663.092 554.446 619.36C554.222 618.215 553.124 617.232 552.04 616.948C532.586 611.873 513.078 605.883 494.729 597.629C492.927 596.816 490.054 597.277 489.66 599.689C483.244 639.085 457.868 670.139 429.266 696.451C428.731 696.938 428.433 697.481 428.29 698.029C427.233 700.713 427.992 705.07 428.067 707.523C428.317 716.162 428.88 724.795 429.408 733.414C431.184 762.598 433.277 791.755 435.31 820.926C440.826 900.246 446.423 979.572 450.312 1058.99C452.094 1095.29 453.768 1131.68 453.416 1168.04C453.402 1169.79 455.015 1171.65 456.865 1171.49C477.423 1169.69 497.961 1167.56 518.289 1163.98C527.911 1162.29 537.465 1160.27 546.952 1157.95C552.237 1156.66 560.341 1155.69 563.986 1150.96C567.469 1146.43 565.728 1139.37 565.857 1134.17C566.155 1122.2 566.9 1110.24 567.117 1098.25C567.544 1074.75 567.252 1051.23 566.602 1027.73Z" fill="#DEA868"/>
<path d="M657.712 1194.68C660.504 1182.73 667.375 1172.64 671.359 1160.97C675.703 1148.24 676.373 1133.29 677.742 1119.88C679.999 1097.83 679.348 1075.35 678.318 1053.22C676.15 1006.75 670.817 960.615 663.255 914.714C648.456 824.851 623.832 737.041 594.336 650.972C586.754 628.841 563.221 611.895 539.2 619.667C517.293 626.754 499.703 651.073 507.895 674.803C537.079 759.354 561.568 845.592 576.624 933.85C578.433 944.447 580.107 955.065 581.645 965.703C581.977 967.987 582.302 970.271 582.621 972.547C582.072 968.339 582.153 968.976 582.865 974.451C583.535 979.804 584.193 985.164 584.816 990.524C587.337 1012.19 589.79 1033.83 591.47 1055.58C593.347 1079.84 594.634 1104.2 597.887 1128.32C598.219 1130.77 598.68 1134.28 599.324 1139.32C600.265 1146.64 600.875 1153.91 603.105 1160.97C606.818 1172.75 612.943 1182.47 614.854 1194.69C618.289 1216.73 652.969 1214.99 657.712 1194.68Z" fill="#DEA868"/>
<path d="M264.467 391.545C264.467 398.687 272.761 404.48 282.992 404.48C293.224 404.48 301.518 398.693 301.518 391.545C301.518 384.396 293.224 378.609 282.992 378.609C272.761 378.616 264.467 384.403 264.467 391.545Z" fill="#FFD097"/>
<path d="M479.348 391.545C479.348 398.687 487.642 404.48 497.873 404.48C508.105 404.48 516.399 398.693 516.399 391.545C516.399 384.396 508.105 378.609 497.873 378.609C487.642 378.616 479.348 384.403 479.348 391.545Z" fill="#FFD097"/>
<path d="M344.43 188.943C373.093 159.508 417.381 155.706 455.523 165.166C491.646 174.124 530.804 192.276 565.836 169.916C569.265 167.727 566.155 162.313 562.631 164.434C521.609 189.112 475.309 158.261 432.837 154.636C399.397 151.783 364.711 160.673 342.011 186.524C340.568 188.163 342.879 190.542 344.43 188.943Z" fill="#7F3E2D"/>
<path d="M419.102 185.655C453.151 188.596 481.827 208.863 514.277 217.584C546.274 226.183 573.588 215.829 601.207 199.824C604.33 198.015 601.545 193.251 598.381 194.986C582.173 203.856 565.03 213.2 546.321 214.995C530.628 216.5 515.172 212.671 500.495 207.447C473.506 197.845 448.333 183.792 419.108 182.599C417.116 182.518 417.171 185.486 419.102 185.655Z" fill="#7F3E2D"/>
<path d="M531.725 249.14C553.517 259.141 579.564 255.014 600.224 244.241C603.72 242.418 600.637 237.227 597.147 238.976C575.817 249.648 555.285 250.142 532.091 247.805C531.393 247.737 531.095 248.848 531.725 249.14Z" fill="#7F3E2D"/>
<path d="M220.287 235.12C209.229 256.227 204.73 279.306 208.565 302.921C209.032 305.794 214.053 305.157 213.701 302.223C210.95 279.482 213.572 257.799 223.567 237.031C224.61 234.856 221.426 232.938 220.287 235.12Z" fill="#7F3E2D"/>
<path d="M224.244 261.635C216.546 277.627 215.842 296.166 224.522 311.961C226.27 315.145 230.742 312.347 229.306 309.162C222.502 294.065 221.378 278.575 227.828 263.147C228.682 261.107 225.206 259.637 224.244 261.635Z" fill="#7F3E2D"/>
<path d="M178.289 287.011C175.206 295.542 175.904 304.825 180.478 312.685C181.989 315.28 186.021 312.936 184.51 310.327C180.444 303.327 179.414 295.738 181.833 287.986C182.545 285.71 179.082 284.815 178.289 287.011Z" fill="#7F3E2D"/>
<path d="M188.596 305.964C190.357 309.515 192.126 313.058 193.888 316.609C195.446 319.753 200.277 316.975 198.617 313.844C196.768 310.348 194.911 306.852 193.061 303.355C191.496 300.401 187.125 303.003 188.596 305.964Z" fill="#7F3E2D"/>
<path d="M560.293 277.469C563.607 288.555 565.328 299.81 565.443 311.383C565.477 314.954 571.128 314.947 570.986 311.383C570.505 299.363 568.411 287.701 564.616 276.277C563.715 273.56 559.46 274.684 560.293 277.469Z" fill="#7F3E2D"/>
<path d="M582.369 289.558C584.362 298.13 583.657 306.282 580.987 314.616C579.842 318.194 585.331 319.623 586.571 316.154C589.81 307.081 589.823 297.446 587.357 288.183C586.496 284.964 581.617 286.326 582.369 289.558Z" fill="#7F3E2D"/>
<path d="M595.833 279.516C595.678 283.5 595.522 287.484 595.366 291.469C595.217 295.311 601.491 295.317 601.342 291.469C601.186 287.484 601.031 283.5 600.875 279.516C600.753 276.277 595.962 276.27 595.833 279.516Z" fill="#7F3E2D"/>
<path d="M324.888 172.327C330.789 158.26 341.59 147.493 355.305 141.015C358.212 139.64 355.678 135.398 352.791 136.712C337.931 143.495 326.92 156.058 321.588 171.419C320.842 173.54 324.061 174.292 324.888 172.327Z" fill="#7F3E2D"/>
<path d="M220.721 654.901C219.319 705.653 217.862 756.426 217.692 807.205C217.679 810.993 223.486 810.986 223.567 807.205C224.624 756.446 224.394 705.666 224.224 654.901C224.218 652.644 220.782 652.651 220.721 654.901Z" fill="#CF9958"/>
<path d="M548.307 670.907C552.569 727.581 554.399 784.018 554.629 840.828C554.643 844.819 560.741 844.819 560.829 840.828C562.103 784.242 558.695 727.025 551.54 670.907C551.289 668.901 548.152 668.792 548.307 670.907Z" fill="#CF9958"/>
</g>
</svg>
