<svg width="765" height="765" viewBox="0 0 765 765" fill="none" xmlns="http://www.w3.org/2000/svg">
<path d="M382.223 764.443C593.273 764.443 764.363 593.353 764.363 382.303C764.363 171.254 593.273 0.164062 382.223 0.164062C171.174 0.164062 0.0839844 171.254 0.0839844 382.303C0.0839844 593.353 171.174 764.443 382.223 764.443Z" fill="#EA98D5"/>
<mask id="mask0_1098_3531" style="mask-type:luminance" maskUnits="userSpaceOnUse" x="0" y="0" width="765" height="765">
<path d="M382.223 764.443C593.273 764.443 764.363 593.353 764.363 382.303C764.363 171.254 593.273 0.164062 382.223 0.164062C171.174 0.164062 0.0839844 171.254 0.0839844 382.303C0.0839844 593.353 171.174 764.443 382.223 764.443Z" fill="white"/>
</mask>
<g mask="url(#mask0_1098_3531)">
<path d="M770.691 512.328C797.49 507.794 803.812 473.04 796.034 448.836C795.607 447.502 794.699 446.722 793.662 446.37C792.205 445.685 790.443 445.821 789.305 447.332C788.905 447.732 788.614 448.227 788.458 448.789C783.613 457.998 777.562 469.11 765.745 469.517C754.903 469.883 744.705 461.006 738.424 453.058C725.448 436.633 722.575 415.058 720.38 394.886C716.87 362.686 715.684 328.298 697.456 300.252C682.759 277.647 656.36 262.09 628.978 268.5C606.732 273.711 583.904 290.84 578.565 313.777C578.002 316.203 579.703 318.724 582.312 318.703C611.164 318.459 635.429 338.049 647.029 363.662C660.791 394.052 656.814 427.282 652.423 459.183C645.674 508.215 658.935 555.403 695.904 589.594C698.717 592.19 703.433 589.655 702.403 585.806C699.841 576.252 699.909 567.281 702.43 558.14C720.488 573.711 716.334 599.887 708.528 620.439C707.654 622.749 709.917 625.487 712.275 625.365C742.795 623.745 764.03 598.532 761.537 569.957C768.008 577.377 773.171 585.705 776.912 595.123C778.186 598.342 783.539 599.27 784.413 595.123C790.376 566.773 793.059 532.581 770.691 512.328Z" fill="#322A2D"/>
<path d="M612.437 344.641C612.41 344.452 612.363 344.282 612.315 344.106C612.308 343.944 612.322 343.781 612.295 343.611C604.387 285.412 583.348 225.702 540.686 183.718C499.658 143.34 448.092 119.651 390.571 116.385C339.839 113.505 287.237 119.366 240.882 141.246C206.846 157.305 179.39 181.95 156.446 211.602C93.9784 292.317 101.195 407.929 164.991 498.87C179.126 519.022 194.372 540.908 265.005 570.553C318.264 592.907 367.763 588.245 424.993 579.972C482.081 571.719 527.06 549.649 561.949 516.887C608.006 473.636 619.694 403.437 612.437 344.641Z" fill="#322A2D"/>
<path d="M122.316 1096.54C135.265 1086 143.464 1071.18 151.581 1056.62C160.438 1040.73 167.681 1024.22 174.66 1007.44C190.022 970.513 199.04 931.225 208.561 892.487C228.475 811.473 244.067 729.192 270.439 649.92C282.263 614.373 225.237 598.524 214.253 634.43C190.049 713.553 171.483 794.31 152.754 874.856C143.836 913.208 133.252 951.248 125.48 989.851C122.038 1006.95 118.379 1024.02 114.706 1041.07C111.19 1057.41 106.379 1073.11 105.945 1089.76C105.715 1098.78 116.272 1101.46 122.316 1096.54Z" fill="#EDAC5F"/>
<path d="M236.316 614.732C201.087 618.595 172.099 699.914 173.577 700.876C193.132 721.658 216.082 739.221 241.215 752.746C253.296 707.543 251.46 658.905 236.316 614.732Z" fill="#57DDC9"/>
<path d="M498.276 1061.08C506.847 1043.83 516.673 1028.97 522.561 1010.32C527.67 994.156 530.665 977.622 533.24 960.885C537.699 931.938 539.535 902.625 540.89 873.394C542.747 833.388 538.498 793.484 530.55 754.285C526.776 735.685 522.148 717.282 517.201 698.966C511.794 678.916 507.301 657.734 499.773 638.382C486.309 603.783 437.522 616.807 444.068 653.743C450.607 690.638 464.829 726.497 472.778 763.23C480.455 798.709 484.141 834.547 483.328 870.873C482.738 897.137 480.963 923.306 478.991 949.495C477.785 965.493 475.698 981.383 474.316 997.354C473.577 1005.82 472.432 1014.24 471.795 1022.72C471.118 1031.76 472.059 1040.23 470.061 1049.19C466.435 1065.43 490.117 1077.49 498.276 1061.08Z" fill="#EDAC5F"/>
<path d="M468.901 614.732C503.405 622.803 522.398 707.021 520.812 707.801C498.899 726.076 474.004 740.752 447.428 751.154C446.107 744.649 429.18 706.886 431.403 687.202C434.425 660.491 457.186 638.936 468.901 614.732Z" fill="#57DDC9"/>
<path d="M475.582 611.339L395.985 596.229H309.367L229.769 611.339C223.881 613.243 220.032 618.908 220.446 625.087L226.93 723.549C216.99 734.093 206.189 749.298 206.413 765.452C206.731 788.911 219.07 810.235 233.422 822.086L240.76 952.145C240.76 952.145 276.944 964.036 334.194 964.036C391.438 964.036 432.738 952.145 432.738 952.145L484.92 625.081C485.319 618.908 481.478 613.243 475.582 611.339Z" fill="#3DCCB7"/>
<path d="M352.612 654.299C386.654 654.183 417.295 632.358 427.493 602.212L395.985 596.229H309.367L291.892 599.549C290.252 618.311 329.126 654.38 352.612 654.299Z" fill="#EDAC5F"/>
<path d="M352.388 637.459C372.662 637.459 389.101 621.02 389.101 600.746V517.408H315.676V600.746C315.676 621.02 332.114 637.459 352.388 637.459Z" fill="#EDAC5F"/>
<path d="M126.436 408.363C133.239 438.144 164.226 457.821 188.416 457.821C216.049 457.821 215.432 439.458 215.432 409.542C215.432 379.626 201.968 355.524 184.174 349.439C144.684 335.941 118.352 372.972 126.436 408.363Z" fill="#ED9F42"/>
<path d="M578.924 408.363C572.121 438.144 541.134 457.821 516.944 457.821C489.311 457.821 489.928 439.458 489.928 409.542C489.928 379.626 503.392 355.524 521.186 349.439C560.669 335.941 587.001 372.972 578.924 408.363Z" fill="#ED9F42"/>
<path d="M187.88 462.882C213.297 574.077 307.877 583.983 352.666 583.983C397.455 583.983 495.531 564.536 517.452 462.882C539.284 361.663 558.744 194.133 352.666 194.133C146.588 194.133 164.808 361.94 187.88 462.882Z" fill="#EDAC5F"/>
<path d="M452.761 332.039C443.654 328.936 435.801 323.474 426.626 320.438C417.485 317.41 407.267 318.927 398.892 313.92C394.555 311.325 393.837 305.362 397.327 301.75C406.664 292.074 422.635 295.144 434.012 299.338C445.531 303.58 457.315 312.253 460.039 324.768C460.926 328.888 457.274 333.577 452.761 332.039Z" fill="#322A2D"/>
<path d="M225.339 324.768C228.056 312.279 239.867 303.566 251.365 299.337C262.776 295.136 278.7 292.067 288.051 301.749C291.534 305.361 290.822 311.324 286.485 313.919C278.124 318.927 267.878 317.416 258.751 320.438C249.563 323.48 241.743 328.928 232.616 332.038C228.09 333.576 224.438 328.887 225.339 324.768Z" fill="#322A2D"/>
<path d="M424.214 416.893C418.251 416.893 411.99 414.298 407.775 410.083C403.743 406.052 400.708 399.438 400.972 393.645C401.236 387.635 403.215 381.401 407.775 377.206C412.329 373.032 417.919 370.396 424.214 370.396C430.177 370.396 436.438 372.992 440.652 377.206C444.684 381.238 447.72 387.851 447.462 393.645C447.191 399.655 445.212 405.896 440.652 410.083C436.099 414.264 430.509 416.893 424.214 416.893Z" fill="#322A2D"/>
<path d="M257.728 416.893C251.765 416.893 245.504 414.298 241.289 410.083C237.257 406.052 234.222 399.438 234.479 393.645C234.75 387.635 236.722 381.401 241.289 377.206C245.836 373.032 251.426 370.396 257.728 370.396C263.69 370.396 269.951 372.992 274.166 377.206C278.198 381.238 281.234 387.851 280.976 393.645C280.705 399.655 278.726 405.896 274.166 410.083C269.613 414.264 264.022 416.893 257.728 416.893Z" fill="#322A2D"/>
<path d="M411.482 357.543C413.481 361.723 415.249 366.338 418.15 369.99C421.016 373.595 426.538 375.994 427.521 380.737C428.036 383.224 426.816 385.792 424.248 386.503C417.614 388.339 411.977 381.225 409.097 376.136C405.953 370.58 404.259 364.468 406.17 358.227C406.854 356.025 410.351 355.178 411.482 357.543Z" fill="#322A2D"/>
<path d="M244.996 357.543C246.995 361.723 248.763 366.338 251.663 369.99C254.53 373.595 260.052 375.994 261.035 380.737C261.55 383.224 260.33 385.792 257.762 386.503C251.128 388.339 245.49 381.225 242.611 376.136C239.467 370.58 237.773 364.468 239.683 358.227C240.368 356.025 243.864 355.178 244.996 357.543Z" fill="#322A2D"/>
<path d="M476.816 458.687C476.816 473.215 465.039 484.992 450.511 484.992C435.984 484.992 424.207 473.215 424.207 458.687C424.207 444.16 435.984 432.383 450.511 432.383C465.039 432.383 476.816 444.16 476.816 458.687Z" fill="#ED9F42"/>
<path d="M260.56 458.687C260.56 473.215 248.783 484.992 234.256 484.992C219.728 484.992 207.951 473.215 207.951 458.687C207.951 444.16 219.728 432.383 234.256 432.383C248.783 432.383 260.56 444.16 260.56 458.687Z" fill="#ED9F42"/>
<path d="M536.391 337.458C533.518 299.404 522.71 263.362 496.155 235.039C470.359 207.521 435.34 188.84 398.411 181.576C360.289 174.082 318.542 176.86 281.132 186.936C246.107 196.368 219.789 218.167 199.088 247.493C172.953 284.531 160.892 327.111 166.97 372.314C167.458 375.932 172.438 375.681 174.078 373.242C192.956 345.196 209.903 315.985 224.797 285.628C236.539 261.682 248.086 235.703 270.968 220.918C270.189 237.858 273.265 254.303 282.975 268.79C294.162 285.486 310.987 297.581 327.155 309.06C329.784 310.923 334.141 307.772 332.867 304.669C323.116 280.872 316.577 256.248 313.291 230.939C324.248 249.221 340.436 263.762 360.472 272.645C364.179 274.292 367.35 270.985 365.791 267.326C360.14 254.012 355.695 240.378 352.328 226.42C359.646 235.737 368.136 243.976 377.893 251.274C380.495 253.219 384.873 249.939 383.606 246.883C379.872 237.837 377.92 229.015 377.622 219.501C414.87 234.808 447.598 260.198 471.348 292.825C495.735 326.332 502.585 368.214 526.261 401.742C527.941 404.127 532.82 404.452 533.369 400.814C536.553 379.733 537.61 358.728 536.391 337.458Z" fill="#322A2D"/>
<path d="M650.736 298.327C689.921 320.627 690.924 369.245 698.039 408.519C704.639 444.94 720.861 478.847 747.165 505.171C749.977 507.983 754.26 503.687 751.522 500.814C735.626 484.105 722.555 465.552 713.881 444.086C706.008 424.605 703.019 404.074 699.821 383.441C694.604 349.744 684.778 312.713 652.491 295.319C650.519 294.255 648.778 297.216 650.736 298.327Z" fill="#21171B"/>
<path d="M651.867 332.187C659.219 350.116 666.768 368.181 672.128 386.829C678.24 408.105 679.48 429.253 679.154 451.268C678.646 485.982 683.2 517.002 706.116 544.377C708.63 547.379 712.804 543.09 710.385 540.108C697.992 524.815 689.786 507.13 686.892 487.615C684.019 468.229 685.991 448.592 685.063 429.09C683.396 393.991 669.099 362.401 653.798 331.374C653.283 330.31 651.413 331.069 651.867 332.187Z" fill="#21171B"/>
<path d="M692.665 445.009C690.476 470.392 703.168 492.238 717.215 512.342C734.453 537.013 753.697 566.381 738.268 596.906C736.702 599.996 741.242 602.714 742.943 599.637C774.004 543.552 692.97 499.928 697.707 445.009C697.991 441.777 692.943 441.79 692.665 445.009Z" fill="#21171B"/>
<path d="M747.591 530.393C751.515 538.396 753.825 546.9 754.808 555.749C755.187 559.184 760.581 559.3 760.283 555.749C759.47 545.863 756.617 536.573 752.05 527.784C750.512 524.817 746.135 527.425 747.591 530.393Z" fill="#21171B"/>
<path d="M299.719 188.429C297.801 201.14 299.753 213.168 306.102 224.389C308.06 227.851 313.284 224.775 311.421 221.279C306.102 211.297 304.083 200.422 305.465 189.208C305.865 185.969 300.206 185.169 299.719 188.429Z" fill="#21171B"/>
<path d="M314.144 183.652C317.634 209.143 328.022 232.649 345.341 251.778C347.421 254.075 350.552 250.754 348.688 248.43C333.029 228.929 322.662 207.178 318.346 182.493C317.858 179.701 313.778 180.941 314.144 183.652Z" fill="#21171B"/>
<path d="M329.187 199.045C333.524 206.472 337.861 213.905 342.204 221.332C343.681 223.859 347.686 221.522 346.127 219.042C341.553 211.751 336.986 204.453 332.413 197.162C331.139 195.129 327.968 196.958 329.187 199.045Z" fill="#21171B"/>
<path d="M358.372 179.186C369.552 195.008 385.591 204.488 402.646 212.992C422.676 222.979 441.899 233.021 458.873 247.881C492.496 277.316 514.68 316.461 521.782 360.627C522.317 363.941 527.359 362.538 526.823 359.238C520.244 318.751 500.844 280.575 472.066 251.303C458.121 237.114 441.683 225.358 423.862 216.556C401.718 205.619 377.121 197.678 361.536 177.336C360.147 175.5 356.989 177.221 358.372 179.186Z" fill="#21171B"/>
<path d="M513.44 296.37C519.105 308.851 521.971 321.644 523.008 335.278C523.279 338.815 528.835 338.835 528.55 335.278C527.399 320.973 523.109 307.272 516.564 294.547C515.48 292.453 512.498 294.289 513.44 296.37Z" fill="#21171B"/>
<path d="M277.303 194.35C269.125 210.097 253.343 217.28 239.534 227.166C228.204 235.277 218.067 244.994 209.516 255.991C190.99 279.809 179.993 308.742 178.123 338.828C177.832 343.537 185.007 343.449 185.407 338.828C188.3 305.537 201.561 274.347 224.274 249.71C241.472 231.055 271.767 220.681 281.457 196.105C282.406 193.706 278.482 192.086 277.303 194.35Z" fill="#21171B"/>
<path d="M169.402 287.114C163.216 301.127 161.088 315.601 163.318 330.765C163.792 333.991 169.504 333.259 169.064 329.986C167.173 315.899 168.786 302.306 174.295 289.174C175.46 286.403 170.629 284.343 169.402 287.114Z" fill="#21171B"/>
<path d="M552.409 473.4C551.474 488.138 547.097 501.195 541.039 514.544C539.549 517.837 544.095 520.69 545.986 517.437C553.717 504.116 556.827 488.673 557.078 473.407C557.125 470.378 552.599 470.426 552.409 473.4Z" fill="#21171B"/>
<path d="M564.165 491.993C563.576 497.028 561.699 501.609 558.792 505.742C556.759 508.635 561.746 511.644 563.576 508.54C566.571 503.458 568.184 497.888 568.394 492C568.502 489.208 564.477 489.357 564.165 491.993Z" fill="#21171B"/>
<path d="M168.067 479.376C170.188 491.688 175.765 502.774 184.655 511.576C187.189 514.09 191.092 510.193 188.571 507.659C180.372 499.413 174.796 489.588 172.329 478.204C171.719 475.392 167.593 476.611 168.067 479.376Z" fill="#21171B"/>
<path d="M191.743 501.608C192.651 504.949 194.629 507.612 197.374 509.665C198.654 510.62 200.68 509.868 201.419 508.601C202.293 507.111 201.656 505.498 200.355 504.556C198.844 503.465 197.834 501.839 197.319 500.063C196.296 496.499 190.767 498.004 191.743 501.608Z" fill="#21171B"/>
<path d="M526.776 227.016C536.418 236.93 541.771 249.038 543.682 262.658C544.163 266.094 550.194 265.321 549.794 261.832C548.093 246.931 541.277 233.697 530.469 223.317C528.043 220.986 524.425 224.597 526.776 227.016Z" fill="#21171B"/>
<path d="M531.389 257.781C534.493 264.408 536.207 271.373 537.061 278.624C537.468 282.093 542.915 282.215 542.604 278.624C541.885 270.398 539.358 262.653 535.53 255.362C534.079 252.604 530.102 255.03 531.389 257.781Z" fill="#21171B"/>
<path d="M596.128 291.851C597.246 300.755 599.069 309.529 600.946 318.304C601.691 321.78 606.847 320.276 606.231 316.848C604.686 308.256 603.12 299.65 600.837 291.214C600.159 288.7 595.782 289.1 596.128 291.851Z" fill="#21171B"/>
<path d="M206.521 173.745C202.13 177.777 199.644 183.231 199.759 189.208C199.826 192.88 205.2 192.826 205.423 189.208C205.688 184.857 207.456 180.833 210.573 177.797C213.222 175.208 209.231 171.258 206.521 173.745Z" fill="#21171B"/>
<path d="M211.99 184.552C209.828 187.283 208.25 190.278 207.436 193.679C207.037 195.346 207.958 197.122 209.652 197.582C211.143 197.989 213.311 197.074 213.555 195.367C213.948 192.636 214.822 190.217 216.333 187.906C218.034 185.325 213.962 182.065 211.99 184.552Z" fill="#21171B"/>
<path d="M380.394 143.923C381.288 146.708 382.718 149.168 384.69 151.322C387.122 153.979 391.161 149.967 388.653 147.359C387.298 145.956 386.262 144.33 385.618 142.48C385.137 141.098 383.768 140.183 382.284 140.589C380.915 140.962 379.946 142.521 380.394 143.923Z" fill="#21171B"/>
<path d="M482.84 554.935C482.535 555.815 482.223 556.696 481.919 557.584C480.543 561.541 487.007 563.371 488.22 559.326C488.484 558.431 488.756 557.537 489.02 556.642C489.514 554.982 488.423 553.153 486.784 552.699C485.015 552.204 483.409 553.288 482.84 554.935Z" fill="#21171B"/>
<path d="M293.248 457.712C312.993 499.933 370.887 489.234 392.99 455.577C397.029 449.425 387.536 444.295 383.314 449.919C360.906 479.801 321.815 483.894 296.331 455.333C294.752 453.572 292.36 455.814 293.248 457.712Z" fill="#DF7723"/>
<path d="M325.04 373.778C316.476 390.318 289.155 433.25 320.988 442.486C326.436 444.065 328.693 435.717 323.319 434.023C301.806 427.227 324.925 389.064 330.102 375.912C331.254 372.992 326.47 371.013 325.04 373.778Z" fill="#DF7723"/>
</g>
</svg>
