<svg width="767" height="767" viewBox="0 0 767 767" fill="none" xmlns="http://www.w3.org/2000/svg">
<path d="M765.414 383.904C765.9 172.854 595.204 1.37074 384.154 0.885329C173.104 0.399915 1.62117 171.096 1.13576 382.146C0.650342 593.196 171.346 764.679 382.396 765.164C593.446 765.649 764.929 594.953 765.414 383.904Z" fill="#67BFF1"/>
<mask id="mask0_1098_3059" style="mask-type:luminance" maskUnits="userSpaceOnUse" x="1" y="0" width="765" height="766">
<path d="M765.412 383.905C765.898 172.856 595.202 1.37274 384.153 0.887331C173.104 0.401918 1.62117 171.098 1.13575 382.147C0.650341 593.196 171.346 764.679 382.395 765.164C593.444 765.649 764.927 594.954 765.412 383.905Z" fill="white"/>
</mask>
<g mask="url(#mask0_1098_3059)">
<path d="M498.87 660.099C519.557 656.759 541.796 671.659 544.479 693.044C549.005 729.065 557.096 765.073 565.39 800.376C567.632 809.937 569.97 819.471 572.403 828.984C572.355 828.808 573.182 832.074 573.683 834.1C574.259 836.058 575.161 839.236 575.12 839.101C576.766 844.359 578.447 849.603 580.161 854.834C585.704 871.707 591.558 888.518 598.484 904.875C600.645 909.978 603.01 914.978 605.388 919.972C611.433 924.214 617.429 928.503 623.562 932.65C599.866 948.818 582.973 973.245 574.388 1000.4C554.629 987.78 538.319 973.015 528.386 950.498C512.171 913.732 503.891 873.347 493.151 834.778C481.408 792.617 469.516 749.468 465.904 705.701C464.163 684.31 476.522 663.711 498.87 660.099Z" fill="#EA98D5"/>
<path d="M260.287 665.722C239.505 663.032 217.748 678.63 215.742 700.09C212.354 736.233 205.402 772.478 198.233 808.031C196.288 817.66 194.255 827.262 192.127 836.85C192.168 836.674 191.443 839.96 191.009 842.006C190.494 843.978 189.695 847.183 189.729 847.048C188.251 852.353 186.741 857.652 185.189 862.937C180.181 879.972 174.862 896.966 168.452 913.534C166.453 918.704 164.244 923.772 162.022 928.841C156.12 933.272 150.252 937.751 144.255 942.088C168.452 957.496 186.103 981.382 195.542 1008.26C214.895 995.015 230.73 979.742 239.946 956.92C254.988 919.659 261.995 879.03 271.508 840.143C281.909 797.63 292.439 754.128 294.662 710.274C295.739 688.821 282.743 668.622 260.287 665.722Z" fill="#EA98D5"/>
<path d="M98.381 437.554C62.2446 411.5 66.9674 357.706 105.787 337.594C76.6503 319.584 85.0324 277.139 115.531 262.713C109.141 245.38 107.427 227.81 117.483 211.046C127.708 194.018 146.809 185.446 166.094 186.517C166.466 169.767 181.895 156.858 198.402 158.667C203.802 108.437 264.779 86.4488 300.401 122.673C313.051 105.327 338.434 91.0769 354.073 110.327C372.287 87.8312 401.261 69.4479 430.839 74.0217C451.939 77.2877 474.381 91.2666 474.747 112.557C499.209 96.003 532.242 113.539 532.994 143.611C558.573 131.36 592.114 131.408 611.128 155.835C624.795 173.399 627.363 203.796 613.249 221.698C623.216 223.344 632.716 227.83 637.439 237.438C641.01 244.709 640.63 252.983 636.755 259.508C659.535 261.425 677.234 271.671 685.935 294.601C686.077 294.865 686.206 295.156 686.287 295.482C686.416 295.827 686.477 296.146 686.511 296.464C692.48 319.875 682.066 350.11 659.962 361.534C670.54 370.099 679.233 381.727 677.864 396.058C676.78 407.448 669.909 416.189 659.901 419.74C674.551 445.36 660.227 475.757 631.984 482.438C642.704 510.132 626.137 539.025 596.688 543.382C601.75 567.667 585.887 593.111 561.853 600.3C548.03 604.433 533.061 602.645 519.93 597.034C515.498 595.144 511.311 592.826 507.347 590.136C506.92 604.759 501.289 618.9 488.963 628.766C469.042 644.717 422.199 641.701 405.876 622.905C389.803 654.799 371.474 658.099 351.946 627.851C336.239 645.93 293.198 639.323 269.475 619.883C253.572 606.846 251.83 590.563 251.431 591.078C235.643 611.494 200.651 608.838 187.716 604.461C172.205 599.209 157.129 588.164 161.981 572.681C144.871 570.52 127.064 564.441 117.686 549.033C110.517 537.243 109.975 522.756 116.914 511.406C81.3531 505.233 69.6101 459.955 98.381 437.554Z" fill="#160907"/>
<path d="M506.053 660.363L453.932 650.469C435.65 647 417.091 645.252 398.484 645.252H367.809C349.202 645.252 330.636 647 312.361 650.469L260.24 660.363C254.352 662.267 250.503 667.931 250.916 674.111L257.401 772.573C253.301 786.579 249.94 798.322 250.157 814.483C250.476 837.941 259.054 861.84 263.885 871.116L263.255 953.472C263.255 953.472 207.794 1185.9 208.282 1218.54C208.492 1232.76 328.325 1237.26 359.901 1237.26C394.818 1237.26 548.83 1227.45 548.83 1208.49C548.836 1126.55 493.883 953.465 493.883 953.465L515.384 674.111C515.783 667.931 511.941 662.267 506.053 660.363Z" fill="white"/>
<path d="M392.148 734.288C432.391 730.677 472.654 723.399 512.314 713.933L515.376 674.111C515.783 667.931 511.941 662.273 506.046 660.362L494.987 658.262C460.294 667.077 425.486 675.283 389.858 680.745C343.727 687.819 297.813 686.47 251.668 685.752L254.256 725.066C298.246 738.686 347.867 738.259 392.148 734.288Z" fill="#F7B9E7"/>
<path d="M367.978 840.354C400.3 838.836 432.581 835.441 464.536 830.346C477.458 828.286 490.705 825.995 503.898 823.278L508.743 760.336C490.495 764.713 472.261 769.158 453.688 772.424C424.436 777.567 395.15 781.423 365.505 783.408C328.169 785.915 290.874 786.301 253.559 786.484C251.425 795.171 250.015 803.872 250.157 814.469C250.252 821.299 251.052 828.15 252.251 834.682C290.522 840.767 329.762 842.156 367.978 840.354Z" fill="#F7B9E7"/>
<path d="M345.142 687.555C357.996 701.784 379.199 705.85 397.324 700.897C421.698 694.236 436.286 672.275 444.838 648.904C429.504 646.485 414.007 645.252 398.476 645.252H367.801C354.446 645.252 341.111 646.167 327.891 647.955C330.547 662.334 335.358 676.727 345.142 687.555Z" fill="#5D2D15"/>
<path d="M416.9 660.436C416.9 662.069 416.257 663.648 415.084 664.793C410.741 669.042 398.903 678.948 383.108 678.948C367.313 678.948 355.483 669.042 351.132 664.793C349.96 663.648 349.316 662.069 349.316 660.436V576.617H416.894L416.9 660.436Z" fill="#5D2D15"/>
<path d="M609.359 449.418C602.556 479.199 571.57 498.877 547.379 498.877C519.747 498.877 520.363 480.514 520.363 450.591C520.363 420.675 533.827 396.572 551.621 390.487C591.105 376.996 617.443 414.027 609.359 449.418Z" fill="#5D2D15"/>
<path d="M156.871 449.418C163.675 479.199 194.661 498.877 218.852 498.877C246.484 498.877 245.861 480.514 245.861 450.591C245.861 420.675 232.397 396.572 214.603 390.487C175.126 376.996 148.788 414.027 156.871 449.418Z" fill="#5D2D15"/>
<path d="M547.915 503.939C522.498 615.133 427.919 625.04 383.129 625.04C338.34 625.04 240.271 605.593 218.344 503.939C196.511 402.719 177.051 235.189 383.129 235.189C589.208 235.189 570.987 402.997 547.915 503.939Z" fill="#6D3419"/>
<path d="M311.581 457.95C317.544 457.95 323.805 455.355 328.02 451.14C332.052 447.108 335.087 440.495 334.823 434.702C334.552 428.691 332.58 422.457 328.02 418.263C323.466 414.089 317.876 411.453 311.581 411.453C305.618 411.453 299.357 414.041 295.143 418.263C291.111 422.295 288.075 428.908 288.333 434.702C288.604 440.712 290.582 446.946 295.143 451.14C299.696 455.321 305.286 457.95 311.581 457.95Z" fill="#160907"/>
<path d="M478.067 457.95C484.03 457.95 490.291 455.355 494.506 451.14C498.538 447.108 501.573 440.495 501.309 434.702C501.038 428.691 499.066 422.457 494.506 418.263C489.952 414.089 484.362 411.453 478.067 411.453C472.105 411.453 465.844 414.041 461.629 418.263C457.597 422.295 454.561 428.908 454.819 434.702C455.09 440.712 457.069 446.946 461.629 451.14C466.176 455.321 471.766 457.95 478.067 457.95Z" fill="#160907"/>
<path d="M324.306 398.599C322.307 402.779 320.539 407.401 317.638 411.053C314.772 414.658 309.25 417.056 308.267 421.8C307.752 424.286 308.972 426.855 311.547 427.566C318.181 429.402 323.818 422.288 326.698 417.199C329.842 411.649 331.536 405.531 329.625 399.29C328.941 397.081 325.438 396.234 324.306 398.599Z" fill="#160907"/>
<path d="M490.792 398.599C488.793 402.779 487.025 407.401 484.125 411.053C481.259 414.658 475.736 417.056 474.754 421.8C474.239 424.286 475.458 426.855 478.026 427.566C484.66 429.402 490.298 422.288 493.178 417.199C496.322 411.649 498.016 405.531 496.105 399.29C495.427 397.081 491.924 396.234 490.792 398.599Z" fill="#160907"/>
<path d="M278.724 517.064C290.516 517.064 300.075 507.504 300.075 495.713C300.075 483.921 290.516 474.361 278.724 474.361C266.932 474.361 257.373 483.921 257.373 495.713C257.373 507.504 266.932 517.064 278.724 517.064Z" fill="#5D2D15"/>
<path d="M479.979 498.369C479.979 510.159 489.539 519.72 501.33 519.72C513.12 519.72 522.681 510.166 522.681 498.369C522.681 486.579 513.12 477.018 501.33 477.018C489.539 477.024 479.979 486.579 479.979 498.369Z" fill="#5D2D15"/>
<path d="M283.102 390.956C297.501 377.6 314.874 369.618 334.748 374.856C341.694 376.686 344.662 365.932 337.716 364.096C315.898 358.343 288.909 365.797 278.318 387.256C276.793 390.333 280.486 393.382 283.102 390.956Z" fill="#160907"/>
<path d="M516.047 387.263C505.449 365.797 478.474 358.35 456.648 364.103C449.71 365.932 452.651 376.692 459.616 374.863C479.484 369.625 496.857 377.607 511.263 390.963C513.858 393.368 517.578 390.353 516.047 387.263Z" fill="#160907"/>
<path d="M405.795 430.026C407.4 438.266 409.101 446.465 410.836 454.677C412.97 464.78 418.771 480.602 403.687 482.479C397.325 483.272 396.877 492.738 403.687 492.752C439.925 492.833 417.07 446.323 408.81 428.752C407.97 426.97 405.456 428.305 405.795 430.026Z" fill="#522713"/>
<path d="M434.904 516.102C406.499 528.61 378.582 528.522 354.297 507.442C349.587 503.356 342.933 509.807 347.385 514.354C370.64 538.077 412.313 543.287 436.943 518.744C438.38 517.308 436.564 515.37 434.904 516.102Z" fill="#522713"/>
<path d="M547.189 249.54C510.138 213.804 457.014 188.719 405.767 183.515C381.394 181.042 356.465 185.954 332.383 189.593C313.119 192.5 293.692 195.949 275.323 202.617C232.993 217.978 207.041 251.411 187.851 290.867C180.194 308.471 175.011 333.983 177.599 353.233C180.703 376.313 200.4 395.976 223.181 400.008C261.215 406.73 285.229 361.636 284.253 326.821C298.029 340.657 316.128 353.132 335.737 344.005C351.288 336.768 353.741 321.027 351.783 305.68C362.536 317.964 376.488 327.349 393.008 329.66C411.656 332.262 429.009 323.629 439.309 308.918C444.167 329.45 456.025 351.038 476.19 358.173C495.407 364.976 510.369 353.274 518.859 337.662C522.125 356.303 531.035 374.429 547.257 384.552C565.789 396.119 586.788 387.92 595.475 368.581C614.15 326.963 575.1 276.461 547.189 249.54Z" fill="#160907"/>
<path d="M224.543 216.073C229.178 196.301 250.997 185.202 268.879 196.403C287.797 208.254 284.003 231.143 272.213 246.409C267.734 252.21 276.99 258.383 281.943 253.917C303.057 234.856 300.13 197.385 273.791 184.443C249.262 172.382 222.517 188.434 218.12 214.305C217.415 218.445 223.547 220.315 224.543 216.073Z" fill="#2D1612"/>
<path d="M390.407 159.23C402.19 148.91 417.66 146.484 431.015 155.673C441.179 162.665 443.7 175.289 440.427 186.564C438.313 193.855 449.649 199.08 452.997 191.863C460.328 176.068 453.396 154.765 438.36 146.071C420.208 135.575 399.242 138.753 385.04 153.857C381.659 157.448 386.748 162.435 390.407 159.23Z" fill="#2D1612"/>
<path d="M471.543 219.55C446.153 220.132 424.883 246.714 441.898 270.126C459.38 294.18 498.145 287.039 515.492 267.083C520.953 260.802 512.463 252.108 506.29 257.881C493.87 269.502 473.745 276.393 457.936 266.765C436.89 253.938 453.546 228.155 472.363 225.607C475.832 225.133 474.958 219.475 471.543 219.55Z" fill="#2D1612"/>
<path d="M571.143 282.167C560.518 274.72 560.186 259.474 571.549 252.549C581.429 246.525 592.385 250.184 601.167 256.134C608.573 261.148 614.868 249.527 608.045 244.364C593.93 233.678 570.885 232.54 559.129 247.63C548.647 261.087 553.742 279.592 567.551 288.3C571.475 290.759 574.829 284.749 571.143 282.167Z" fill="#2D1612"/>
<path d="M588.509 355.998C595.651 345.624 613.662 344.818 622.322 353.26C631.666 362.374 633.482 378.054 624.043 387.574C618.412 393.259 626.631 400.76 632.581 396.112C649.371 383.014 643.537 355.253 627.831 343.896C614.672 334.383 589.81 337.371 583.495 353.884C582.33 356.947 586.856 358.397 588.509 355.998Z" fill="#2D1612"/>
<path d="M565.776 516.034C573.467 524.03 573.86 536.687 567.22 545.503C560.627 554.271 548.952 557.483 538.415 556.026C528.624 554.671 526.706 568.887 536.606 569.415C552.57 570.276 569.984 564.198 578.19 549.616C585.454 536.714 582.994 519.747 571.631 510.18C567.606 506.785 562.029 512.131 565.776 516.034Z" fill="#2D1612"/>
<path d="M282.715 304.256C271.982 291.016 254.276 284.45 237.824 290.562C223.269 295.969 212.272 311.337 213.444 327.024C214.081 335.616 226.434 335.737 226.888 327.024C228.331 299.418 258.599 291.511 277.654 309.318C281.089 312.53 285.568 307.773 282.715 304.256Z" fill="#2D1612"/>
<path d="M153.972 261.121C160.307 252.326 172.294 255.667 175.899 265.011C179.056 273.196 174.855 280.162 170.058 286.525C165.66 292.359 175.16 299.413 180.08 294.256C190.42 283.428 192.202 264.943 180.988 254.04C171.183 244.507 154.873 245.618 147.304 257.225C144.553 261.453 151.119 265.085 153.972 261.121Z" fill="#2D1612"/>
<path d="M156.228 365.546C135.981 356.554 113.573 367.45 107.299 388.747C101.586 408.153 109.535 437.69 132.851 439.689C140.691 440.359 142.114 428.027 134.687 426.116C104.486 418.351 119.936 359.657 153.274 372.545C157.285 374.097 160.192 367.307 156.228 365.546Z" fill="#2D1612"/>
<path d="M174.354 497.42C148.504 501.405 145.109 531.707 157.909 550.314C169.374 566.989 196.539 570.77 209.189 553.18C213.831 546.729 203.125 538.361 198.09 544.615C190.691 553.817 175.885 550.802 169.326 542.596C160.348 531.361 158.349 508.153 176.475 505.104C181.543 504.25 179.361 496.648 174.354 497.42Z" fill="#2D1612"/>
<path d="M373.046 188.164C355.361 188.746 340.203 202.976 340.373 221.129C340.555 240.969 361.439 256.425 380.385 250.713C387.242 248.646 386.381 236.815 378.616 237.628C348.287 240.806 346.904 199.812 373.792 193.673C376.861 192.968 376.204 188.062 373.046 188.164Z" fill="#2D1612"/>
<path d="M519.116 206.919C522.681 198.761 523.453 189.444 533.38 185.934C542.9 182.573 554.731 188.834 552.129 199.628C549.927 208.735 563.025 212.198 566.054 203.47C572.776 184.091 553.539 168.303 535.026 171.515C526.387 173.012 519.076 178.277 515.166 186.191C512.178 192.249 510.978 202.108 516.128 207.305C516.914 208.085 518.615 208.058 519.116 206.919Z" fill="#2D1612"/>
</g>
</svg>
